<?xml version="1.0" standalone="no"?>
<!DOCTYPE svg PUBLIC "-//W3C//DTD SVG 1.1//EN" "http://www.w3.org/Graphics/SVG/1.1/DTD/svg11.dtd" >
<svg xmlns="http://www.w3.org/2000/svg">
<metadata>Generated by IcoMoon</metadata>
<defs>
<font id="designcenter" horiz-adv-x="1024">
<font-face units-per-em="1024" ascent="960" descent="-64" />
<missing-glyph horiz-adv-x="1024" />
<glyph unicode="&#x20;" horiz-adv-x="512" d="" />
<glyph unicode="&#xe900;" glyph-name="home" d="M1024 369.556l-512 397.426-512-397.428v162.038l512 397.426 512-397.428zM896 384v-384h-256v256h-256v-256h-256v384l384 288z" />
<glyph unicode="&#xe901;" glyph-name="home2" d="M512 928l-512-512 96-96 96 96v-416h256v192h128v-192h256v416l96-96 96 96-512 512zM512 512c-35.346 0-64 28.654-64 64s28.654 64 64 64c35.346 0 64-28.654 64-64s-28.654-64-64-64z" />
<glyph unicode="&#xe902;" glyph-name="home3" d="M1024 352l-192 192v288h-128v-160l-192 192-512-512v-32h128v-320h320v192h128v-192h320v320h128z" />
<glyph unicode="&#xe903;" glyph-name="office" d="M0-64h512v1024h-512v-1024zM320 832h128v-128h-128v128zM320 576h128v-128h-128v128zM320 320h128v-128h-128v128zM64 832h128v-128h-128v128zM64 576h128v-128h-128v128zM64 320h128v-128h-128v128zM576 640h448v-64h-448zM576-64h128v256h192v-256h128v576h-448z" />
<glyph unicode="&#xe904;" glyph-name="newspaper" d="M896 704v128h-896v-704c0-35.346 28.654-64 64-64h864c53.022 0 96 42.978 96 96v544h-128zM832 128h-768v640h768v-640zM128 640h640v-64h-640zM512 512h256v-64h-256zM512 384h256v-64h-256zM512 256h192v-64h-192zM128 512h320v-320h-320z" />
<glyph unicode="&#xe905;" glyph-name="pencil" d="M864 960c88.364 0 160-71.634 160-160 0-36.020-11.91-69.258-32-96l-64-64-224 224 64 64c26.742 20.090 59.978 32 96 32zM64 224l-64-288 288 64 592 592-224 224-592-592zM715.578 596.422l-448-448-55.156 55.156 448 448 55.156-55.156z" />
<glyph unicode="&#xe906;" glyph-name="Page" d="M37.427 953.413c-13.174-6.887-22.157-15.869-28.744-28.444-5.389-10.48-5.689-26.648-5.988-474.573-0.299-432.954 0-464.393 4.791-476.070 6.288-15.57 21.258-29.343 36.529-33.535 7.785-2.395 159.588-3.294 471.28-3.294h459.602l16.468 8.384c13.474 6.587 17.665 10.779 24.253 24.253l8.384 16.468v459.602c0 307.2-1.198 463.495-2.994 470.98-4.192 14.971-16.468 29.043-31.439 35.63-11.378 5.389-32.337 5.689-477.567 5.389-418.582 0-466.489-0.299-474.573-4.791zM895.251 449.497v-383.251h-766.503v381.156c0 209.89 0.898 382.353 2.096 383.251 0.898 1.198 173.361 2.096 383.251 2.096h381.156v-383.251z" />
<glyph unicode="&#xe907;" glyph-name="Adjustments" d="M504.948 907.531c-13.823-11.848-47.392-39.211-74.191-61.214l-48.802-40.057 74.755-0.846c41.186-0.282 108.888-0.282 150.074 0l74.755 0.846-20.593 16.926c-11.284 9.027-44.853 36.672-74.755 61.214-29.62 24.542-54.444 44.571-55.008 44.289-0.282 0-12.13-9.591-26.235-21.157zM506.358 735.736v-32.159l-10.437-1.693c-72.498-12.13-121.018-56.419-130.609-119.326-7.334-45.981 9.591-90.27 46.263-121.3 14.387-12.13 56.419-34.98 81.525-44.289l13.258-5.078v-129.763l-17.208 1.975c-22.003 2.539-69.395 18.054-93.091 30.466-9.873 5.078-18.9 9.591-20.311 10.155-1.128 0.564-1.693-20.311-1.41-46.263l0.846-47.674 18.618-7.334c26.799-10.72 62.343-19.182 89.142-21.439l23.414-1.693v-72.498h47.956v34.698c0 18.9 1.128 35.826 2.257 37.518 1.128 1.41 10.437 4.513 20.875 6.206 23.132 4.231 53.034 16.079 70.523 28.209 46.263 31.594 63.753 95.63 42.032 153.177-12.694 33.287-40.904 58.958-90.552 82.089-16.361 7.617-32.723 15.515-36.672 17.208l-7.052 3.667-0.846 64.599c-0.282 35.544 0.282 65.446 1.41 66.574 5.924 5.924 79.268-15.233 101.554-28.774l9.309-5.924v93.937l-11.848 5.078c-16.926 7.052-35.826 11.284-69.959 15.233l-29.62 3.385-0.846 31.877-0.846 31.594h-47.674v-32.441zM506.358 566.479c0-62.061 0.282-61.496-20.029-45.699-25.388 19.182-34.133 38.083-29.62 62.343 2.539 12.976 14.105 26.517 28.491 33.005 22.003 10.155 21.157 12.13 21.157-49.648zM567.572 386.786c45.417-19.464 54.162-75.319 15.233-95.348-5.924-2.821-14.387-5.642-18.9-6.206l-8.181-0.846-0.846 49.366c-0.564 45.699 0 56.419 3.385 56.419 0.846 0 5.078-1.41 9.309-3.385zM385.34 87.484c2.257-1.975 36.39-29.902 75.319-62.061l71.088-58.675 71.088 58.675c38.929 32.159 73.062 60.086 75.319 62.061 3.667 2.821-27.363 3.385-146.407 3.385s-150.074-0.564-146.407-3.385z" />
<glyph unicode="&#xe908;" glyph-name="AllPages" d="M20.4 955.8c-5.2-2.6-11-7.8-14-12.4l-5.4-8.2-0.6-313.8c-0.4-304-0.4-314 3.4-322.2 4.4-10 13.8-17.8 25.2-21 5-1.4 32.6-2.2 74.6-2.2h66.4v-69.6c0-69.2 0-69.8 4.6-78.6 2.6-4.8 8.6-11.4 13.2-14.8l8.6-6 143.6-1.2v-66.4c0-41.8 0.8-69.4 2.2-74.4 3.2-11.4 11-20.8 21-25.2 8.2-3.8 18.2-3.8 322.2-3.4l313.8 0.6 8.2 5.4c4.8 3.2 9.8 8.8 12.4 14l4.2 8.8v312c0 300.2-0.2 312.2-3.8 320-4.4 9.8-14 17.6-25.2 20.6-5 1.4-32.6 2.2-74.4 2.2h-66.4l-1.2 143.6-6 8.6c-3.2 4.6-10 10.6-14.8 13.2-8.8 4.6-9.4 4.6-78.6 4.6h-69.6v66.6c0 41.8-0.8 69.4-2.2 74.4-3 11.2-10.8 20.8-20.6 25.2-7.8 3.6-19.8 3.8-320.2 3.8h-312l-8.6-4.2zM596 832v-42l-399-1-7.6-4.8c-4.2-2.6-10-8.4-13-12.8l-5.4-8.2-0.6-199.6-0.4-199.6h-84v510h510v-42zM768 662v-42h-194.6c-214.6 0-207.6 0.4-220.8-12.4-13-12.6-12.6-5.6-12.6-221v-194.6h-84v512h512v-42zM938 277v-255h-510v510h510v-255z" />
<glyph unicode="&#xe909;" glyph-name="Appliances" d="M274.944 777.216c-2.048-1.536-3.584-148.992-3.584-327.68v-324.096h204.8v317.44h174.080l-1.024 167.936-1.536 167.424-184.832 1.536c-101.376 0.512-185.856-0.512-187.904-2.56zM609.28 573.44c0-6.656-19.968-7.68-151.040-7.68s-151.040 1.024-151.040 7.68c0 6.656 19.968 7.68 151.040 7.68s151.040-1.024 151.040-7.68zM495.104 418.816c-2.048-1.536-3.584-22.528-3.584-46.080v-42.496h312.832l-1.536 45.056-1.536 44.544-151.552 1.536c-82.944 0.512-152.576-0.512-154.624-2.56zM492.544 216.576l1.536-98.816h307.2l1.536 98.816 1.024 98.304h-312.32l1.024-98.304zM765.44 215.040v-66.56h-240.64l-1.536 60.928c-0.512 33.792 0 64.512 1.024 68.096 2.048 5.632 26.624 6.656 121.856 5.632l119.296-1.536v-66.56zM540.672 255.488c-6.144-16.384-3.584-82.432 4.096-88.576 4.608-4.096 37.376-5.632 105.984-4.608l99.328 1.536v97.28l-102.912 1.536c-90.624 1.024-103.424 0-106.496-7.168z" />
<glyph unicode="&#xe90a;" glyph-name="eyedropper" d="M986.51 922.51c-49.988 49.986-131.032 49.986-181.020 0l-172.118-172.118-121.372 121.372-135.764-135.764 106.426-106.426-472.118-472.118c-8.048-8.048-11.468-18.958-10.3-29.456h-0.244v-160c0-17.674 14.328-32 32-32h160c0 0 2.664 0 4 0 9.212 0 18.426 3.516 25.456 10.544l472.118 472.118 106.426-106.426 135.764 135.764-121.372 121.372 172.118 172.118c49.986 49.988 49.986 131.032 0 181.020zM173.090 0h-109.090v109.090l469.574 469.572 109.088-109.088-469.572-469.574z" />
<glyph unicode="&#xe90b;" glyph-name="Bed2" d="M79.768 772.638l-9.275-8.904v-267.501h-27.084c-18.18 0-29.681-1.855-35.246-5.936l-8.162-5.565v-179.2c0-168.812 0.371-179.571 6.678-185.136 5.936-5.565 17.809-6.307 90.899-6.307h83.849l7.42 9.646c7.049 8.904 7.791 14.841 7.791 53.797v44.151h634.435v-45.635c0-66.783-7.42-61.959 96.464-61.959 71.977 0 85.704 0.742 90.528 5.936 5.194 5.194 5.936 27.084 5.936 184.765 0 209.252 3.71 191.443-41.925 191.443h-28.568v135.42c0 134.307 0 135.049-8.162 142.841-8.162 7.42-10.388 7.42-432.232 7.42h-424.441l-8.904-9.275zM897.855 611.246v-115.014h-30.052l5.936 11.13c7.791 15.583 7.791 102.4-0.371 121.693-12.986 31.165-50.829 56.023-98.319 63.814-16.696 2.968-56.023 3.71-112.046 2.968-76.058-1.484-88.672-2.597-107.594-9.646-11.872-4.452-25.971-11.13-31.536-15.212l-10.388-7.42-24.487 12.614c-36.359 18.18-63.443 21.519-163.617 19.664-76.058-1.484-88.672-2.597-107.223-9.646-30.052-10.759-53.055-27.826-64.557-47.49-8.533-14.841-10.017-21.89-11.501-58.249-1.484-37.843 0.742-59.733 8.162-77.542 2.226-5.565 0.742-6.678-10.759-6.678h-13.357v230.029h771.71v-115.014zM448.928 632.023c29.31-11.13 29.681-11.872 29.681-65.67v-47.49l-21.148-10.388-21.519-10.388h-92.754c-88.672 0-93.496 0.371-111.304 8.533-31.165 14.47-31.536 15.212-31.536 60.846 0 35.617 0.742 40.812 7.791 47.861 20.406 20.406 50.087 25.229 148.035 24.116 60.104-0.742 79.397-2.597 92.754-7.42zM788.406 630.168c33.391-14.841 35.246-18.18 35.246-61.959v-37.843l-12.986-11.13c-20.035-17.809-33.762-20.406-121.322-21.89-89.043-1.855-116.128 1.855-139.13 19.664l-12.243 9.275v41.925c0 45.635 0.371 47.119 24.858 59.362 20.406 10.388 48.974 12.986 129.113 11.872 71.606-0.742 79.397-1.484 96.464-9.275zM972.058 305.159v-135.42h-85.333v45.635c0 40.812-0.742 46.748-7.42 53.797l-7.791 8.162h-719.026l-7.42-9.646c-7.049-8.904-7.791-14.841-7.791-53.797v-44.151h-81.623v270.841h916.406v-135.42z" />
<glyph unicode="&#xe90c;" glyph-name="Bed3" d="M236.658 595.911v-91.022h27.307v159.289h500.622v-159.289h27.307v182.044h-555.236v-91.022zM337.237 593.18c-14.564-10.468-23.211-33.678-23.211-63.26v-25.031h172.942v29.582c0 34.133-7.737 52.793-25.031 60.53-19.115 8.647-111.502 7.282-124.7-1.82zM451.015 573.156c6.372-3.641 8.647-9.557 8.647-25.031v-20.48h-118.329v17.749c0 26.852 10.923 32.313 60.53 32.313 22.3 0 44.146-2.276 49.152-4.551zM567.979 593.18c-17.749-9.557-21.845-19.57-21.845-55.979v-32.313h173.852l-1.82 34.588c-1.365 32.313-2.731 35.499-16.384 47.787-14.564 13.198-15.474 13.198-68.267 13.198-38.229-0.455-56.889-2.276-65.536-7.282zM681.756 570.425c7.282-5.006 10.012-11.378 10.012-25.031v-17.749h-122.88v15.929c0 27.762 11.378 34.133 60.53 34.133 30.948 0 45.056-1.82 52.338-7.282zM200.249 472.576c-5.916-2.731-12.743-6.827-14.564-10.012s-3.641-55.068-3.641-115.598v-110.592h669.013v108.772c0 100.124-0.455 109.682-8.647 119.239l-8.647 10.923-311.296 0.91c-197.973 0.455-314.937-0.91-322.219-3.641zM823.751 356.978v-93.298h-618.951v186.596h618.951v-93.298zM513.365 324.21l-285.81-1.365v-22.756h573.44v13.653c0 7.737-0.455 13.198-0.91 12.743-0.91-0.91-129.707-1.82-286.72-2.276z" />
<glyph unicode="&#xe90d;" glyph-name="image" d="M959.884 832c0.040-0.034 0.082-0.076 0.116-0.116v-767.77c-0.034-0.040-0.076-0.082-0.116-0.116h-895.77c-0.040 0.034-0.082 0.076-0.114 0.116v767.772c0.034 0.040 0.076 0.082 0.114 0.114h895.77zM960 896h-896c-35.2 0-64-28.8-64-64v-768c0-35.2 28.8-64 64-64h896c35.2 0 64 28.8 64 64v768c0 35.2-28.8 64-64 64v0zM832 672c0-53.020-42.98-96-96-96s-96 42.98-96 96 42.98 96 96 96 96-42.98 96-96zM896 128h-768v128l224 384 256-320h64l224 192z" />
<glyph unicode="&#xe90e;" glyph-name="images" horiz-adv-x="1152" d="M1088 832h-64v64c0 35.2-28.8 64-64 64h-896c-35.2 0-64-28.8-64-64v-768c0-35.2 28.8-64 64-64h64v-64c0-35.2 28.8-64 64-64h896c35.2 0 64 28.8 64 64v768c0 35.2-28.8 64-64 64zM128 768v-640h-63.886c-0.040 0.034-0.082 0.076-0.114 0.116v767.77c0.034 0.040 0.076 0.082 0.114 0.114h895.77c0.040-0.034 0.082-0.076 0.116-0.116v-63.884h-768c-35.2 0-64-28.8-64-64v0zM1088 0.116c-0.034-0.040-0.076-0.082-0.116-0.116h-895.77c-0.040 0.034-0.082 0.076-0.114 0.116v767.77c0.034 0.040 0.076 0.082 0.114 0.114h895.77c0.040-0.034 0.082-0.076 0.116-0.116v-767.768zM960 608c0-53.020-42.98-96-96-96s-96 42.98-96 96 42.98 96 96 96 96-42.98 96-96zM1024 64h-768v128l224 384 256-320h64l224 192z" />
<glyph unicode="&#xe90f;" glyph-name="Bed4" d="M194.332 885.362c-27.307-7.282-52.338-27.307-65.536-52.793-10.468-19.57-10.468-21.845-10.468-175.218v-155.193l-24.576-10.468c-35.499-14.564-59.164-36.864-76.459-72.363l-15.019-30.037-2.731-257.593 11.378-11.378c10.923-10.923 14.108-11.378 59.62-11.378h47.787v-41.87c0-23.211 1.82-44.601 3.641-47.332 11.378-17.749 40.96-16.384 50.517 2.276 2.731 5.006 5.006 26.396 5.006 47.787v39.14h669.013v-39.14c0-21.39 2.276-42.78 5.006-47.787 9.557-18.66 39.14-20.025 50.517-2.276 1.82 2.731 3.641 24.121 3.641 47.332v41.87h47.787c45.511 0 48.697 0.455 59.62 11.378l11.378 11.378-1.365 128.796c-1.365 128.341-1.365 128.341-13.653 154.283-15.474 33.223-46.421 63.716-78.734 76.914l-24.576 10.012-1.365 157.468c-1.365 149.276-1.82 158.379-10.923 175.673-12.743 24.576-41.87 45.966-70.087 51.883-35.499 7.737-600.747 6.372-629.419-1.365zM833.308 814.82l13.198-13.198v-296.732h-98.759l-2.276 40.96c-4.096 70.997-36.409 119.694-94.208 141.084-23.211 9.102-32.768 9.557-147.911 8.192-118.329-1.365-124.245-1.82-142.905-11.833-53.248-28.217-78.279-70.087-81.92-136.078l-2.276-42.325h-98.759v296.732l26.396 26.396h616.22l13.198-13.198zM631.694 630.044c36.409-15.474 50.062-37.774 54.158-88.747l2.731-36.409h-353.166l2.731 35.499c3.186 50.062 17.294 73.728 53.248 89.202 23.666 10.012 215.723 10.468 240.299 0.455zM895.659 440.263c14.108-3.641 26.852-11.378 40.050-24.121 26.396-26.396 30.037-46.876 28.217-156.103l-1.365-87.381h-901.12l-1.365 91.932c-0.91 62.805 0.455 98.759 4.551 112.868 6.827 25.941 36.409 55.979 60.985 62.805 26.396 6.827 741.831 7.282 770.048 0z" />
<glyph unicode="&#xe910;" glyph-name="Closet" d="M162.020 953.173c-9.557-3.186-23.211-11.833-30.492-18.66-28.217-27.307-26.852 0.91-26.852-486.059v-444.188h31.858v-68.267h77.369l33.678 68.267h562.517l33.678-68.267h75.548v477.867c0 465.579-0.455 478.777-9.102 495.616-10.923 21.845-31.858 39.595-53.703 45.966-10.923 2.731-133.348 4.551-346.795 4.551-268.516-0.455-333.141-1.365-347.705-6.827zM861.525 917.22c27.307-18.66 25.941 4.096 25.941-457.842v-423.253h-750.933v423.253c0 457.842-0.91 440.092 23.666 456.021 5.916 4.096 15.019 8.192 19.57 9.557 5.006 1.365 157.468 1.82 339.058 1.365 315.847-0.455 330.411-0.91 342.699-9.102zM197.973 906.752c-4.551-1.365-13.653-5.461-19.57-9.557-24.576-15.929-23.666 0.455-23.666-437.817v-405.049h341.333l-0.91 426.894-1.365 426.439-143.36 0.455c-78.734 0.455-147.456 0-152.462-1.365zM441.458 523.548c2.276-5.006 4.551-27.762 4.551-50.517 0-44.146-4.551-59.164-17.294-59.164-16.384 0-19.115 9.557-19.115 61.44 0 28.217 1.365 52.338 3.186 53.703 5.916 6.372 24.121 2.731 28.672-5.461zM531.115 907.207c-1.82-1.82-3.186-194.332-3.186-428.26v-424.619h341.333v405.049c0 442.368 1.365 421.433-25.941 439.637-11.833 8.192-24.121 8.647-160.654 10.012-81.465 0.91-149.732 0-151.552-1.82zM613.49 478.037c1.365-53.703-1.82-64.171-17.749-64.171-13.198 0-17.749 14.564-17.749 59.164 0 48.697 4.551 60.53 21.845 58.254l12.288-1.365 1.365-51.883z" />
<glyph unicode="&#xe911;" glyph-name="Communication" d="M316.302 889.003c-122.88-27.307-223.46-112.868-258.958-220.274-23.666-71.908-19.57-146.546 12.743-216.178 13.653-29.127 49.607-79.189 65.536-91.477 5.461-4.096 5.916-7.737 1.82-19.57-8.647-24.576-30.948-48.242-60.075-63.716-32.768-17.749-41.87-31.403-31.403-49.607 11.378-20.48 24.121-24.121 76.914-22.3 54.158 2.276 96.484 14.108 161.109 45.966l38.229 18.66 35.499-4.096c75.093-9.102 177.948 13.198 244.395 52.338 64.171 38.229 115.598 98.759 138.354 164.295 15.474 44.146 19.115 114.233 8.647 160.654-26.852 112.868-122.425 206.62-246.215 241.209-39.595 10.923-145.18 13.198-186.596 4.096zM481.508 848.043c105.131-23.666 194.332-101.945 224.37-197.518 12.288-39.14 13.653-101.035 2.276-138.809-27.762-93.298-108.316-166.571-214.357-195.243-35.499-10.012-120.149-14.108-152.917-8.192-25.031 5.006-26.396 4.551-59.62-12.743-56.889-30.037-181.589-65.991-175.673-50.972 0.455 2.731 10.468 11.378 21.845 20.025 24.121 18.204 44.146 48.697 51.883 79.189l5.916 22.3-30.492 32.768c-51.883 55.979-76.004 120.149-71.452 192.512 10.923 178.859 201.159 301.284 398.222 256.683zM227.556 693.76v-20.48h345.884v40.96h-345.884v-20.48zM227.556 591.36v-18.204h345.884v36.409h-345.884v-18.204zM227.556 488.96v-20.48h241.209v40.96h-241.209v-20.48zM790.073 504.434c-1.82-10.468-2.276-19.115-1.82-19.57 60.53-24.576 114.233-71.452 136.533-119.239 13.653-28.217 15.019-35.499 15.019-72.363 0-34.133-2.276-45.056-11.833-65.991-15.019-31.858-43.236-67.356-65.081-81.92-14.564-10.012-16.384-13.198-14.108-25.031 4.096-21.39 23.211-46.421 47.787-62.805 12.288-7.737 22.756-15.929 22.756-17.749 0-10.923-89.202 4.551-125.156 21.39-14.564 6.827-33.678 20.025-42.78 29.127-15.019 15.019-17.749 16.384-34.588 13.198-54.613-9.557-148.366 0-205.71 21.39-40.96 15.474-87.836 47.787-108.772 75.093-15.019 19.57-18.66 22.3-37.774 23.666-11.378 1.365-21.845 1.365-22.3 0.91-0.91-0.455 3.641-11.378 10.468-23.666 15.474-28.672 55.979-68.722 91.022-89.657 57.344-34.133 160.199-56.434 237.568-50.972 37.774 2.731 38.229 2.731 57.799-11.833 40.505-30.948 98.759-48.697 159.744-48.697 48.242 0 77.369 10.468 81.92 28.672 4.551 17.294-4.096 28.672-35.499 46.421-15.474 9.102-33.678 21.845-40.505 28.217l-12.288 11.833 26.396 28.672c83.285 91.022 83.74 209.351 1.365 298.553-26.852 28.672-65.991 57.799-97.849 71.908-26.396 12.288-29.127 11.378-32.313-9.557zM584.818 263.225l-36.409-17.294 124.245-0.455h123.79v36.409l-175.218-0.91-36.409-17.749z" />
<glyph unicode="&#xe912;" glyph-name="Contacts" d="M308 828.8c-33.6-8.8-66.2-35.4-81.8-66.8-10.4-21.6-14.2-40.8-14.2-74.2v-25.8h-25.6c-23.4 0-26.4-0.4-35.8-5-6.4-3.2-12.2-8.2-15.8-13.4-5.2-7.4-5.8-9.8-5.8-24.8s0.6-17.2 6-25c3.4-4.6 10-10.6 14.8-13.2 8-4.2 11.4-4.6 35.6-4.6h26.6v-84h-23.8c-26.4 0-37.6-2.8-46.8-11.6s-13.4-18.8-13.4-32.4c0-14.6 4.6-25 15-33.6 10.2-8.4 19.2-10.4 45.8-10.4h23.2v-84h-27c-28.6 0-34.4-1.4-44.6-10.8-9.4-8.4-12.8-18.6-12-34.2 0.8-18.2 7.2-28.4 22.2-36 9.4-4.6 12.4-5 35.8-5h25.6v-26c0-33 3.8-52 14.4-74 11-22.8 33.8-45.8 55.6-56.4 29.4-14.4 10.8-13.6 293.6-13.6 283 0 264.8-0.8 294.4 13.6 22 10.6 44.8 33.8 55.6 56.6 15.2 31.4 14.4 15.8 14.4 313.8s0.8 282.4-14.4 313.8c-10.8 22.8-33.6 46-55.6 56.6-29.4 14.4-10.6 13.6-295 13.4-216 0-257.8-0.6-267-3zM340 704v-42h-40v25.6c0 29.2 2.8 38 14.8 47.6 6.8 5.4 17.2 10.4 22.8 10.6 1.8 0.2 2.4-9.4 2.4-41.8zM822.2 743.8c10.4-3.2 21.6-12.8 26-22.6 3.6-7.8 3.8-19.6 3.8-273.2s-0.2-265.4-3.8-273.2c-4.4-9.8-15.6-19.4-26-22.6-5.6-1.6-67.4-2.2-223-2.2h-215.2v596h215.2c155.6 0 217.4-0.6 223-2.2zM340 534v-42h-40v84h40v-42zM340 362v-42h-40v84h40v-42zM340 191.8v-42.2l-5 1.2c-15 3.8-25.8 12.2-31.2 24.2-3 6.4-3.8 13-3.8 33.6v25.4h40v-42.2zM575.4 595.8c-18.2-4.2-38.2-18.4-49.6-35.2-18.8-27.2-18.8-70 0-97.2 15.2-22.2 38.2-35.2 65.2-36.8 28.2-1.8 49.6 6.2 68 25.6 32.2 33.6 32.8 84.6 1.6 118-11.8 12.6-20.6 18.4-36.4 23.8-12.8 4.2-34.8 5.2-48.8 1.8zM575.2 389.8c-48.8-5.4-85.2-30.4-85.2-58.6 0-18.8 32.8-30.4 93.2-32.6 49.8-1.8 91.6 4.8 111.8 17.6 8.6 5.4 9 6 9 15.4 0 17.6-13.6 33.6-39 45.8-23.6 11-58.4 16-89.8 12.4z" />
<glyph unicode="&#xe913;" glyph-name="DiningRoom" d="M30.72 448v-317.44h30.72v215.040h199.68v-215.552l14.336 1.536 13.824 1.536v285.184l-12.288 9.728c-10.752 8.704-20.992 9.728-105.984 9.728h-94.208v154.112c0 96.256-2.048 157.696-5.12 163.84-4.096 6.656-10.752 9.728-23.040 9.728h-17.92v-317.44zM261.12 381.44c0-9.728-3.584-10.24-99.84-10.24s-99.84 0.512-99.84 10.24c0 9.728 3.584 10.24 99.84 10.24s99.84-0.512 99.84-10.24zM952.32 755.712c-3.072-6.144-5.12-67.584-5.12-163.84v-154.112h-94.72c-88.064 0-95.232-0.512-104.96-10.24s-10.24-16.896-10.24-153.6v-143.36h25.6v215.040h199.68v-215.040h30.72v634.88h-17.92c-12.288 0-18.944-3.072-23.040-9.728zM962.56 381.44c0-9.728-3.584-10.24-99.84-10.24s-99.84 0.512-99.84 10.24c0 9.728 3.584 10.24 99.84 10.24s99.84-0.512 99.84-10.24zM212.992 588.288c-9.216-8.704-9.728-12.288-5.12-24.576 2.56-7.168 17.408-8.192 109.056-8.192h105.472l13.824-22.016c7.168-11.776 18.944-36.352 25.088-54.784 10.752-29.696 11.776-42.496 11.776-115.2 0-72.192-1.536-88.576-14.336-139.264l-14.336-57.856h-50.176v-35.84h235.52v35.84h-25.6c-24.576 0-25.088 0.512-30.208 19.456-22.016 80.896-23.040 91.648-23.040 177.664 0 94.208 5.12 117.76 35.328 169.472l13.312 22.528 105.984 1.024 105.984 1.536 1.536 14.848c1.024 8.192-1.024 16.384-5.12 18.944-3.584 2.56-137.216 4.608-296.96 4.608-257.024 0-290.816-1.024-297.984-8.192z" />
<glyph unicode="&#xe914;" glyph-name="Download" d="M435.485 942.581c-1.302-0.488-4.070-2.442-6.024-4.233l-3.744-3.256v-342.853l-57.305-0.488c-61.538-0.488-64.794-0.977-64.794-8.628 0-4.558 4.233-10.093 35.002-47.211 38.909-47.049 155.961-188.357 162.635-196.497 11.070-13.675 22.629-17.745 32.071-11.396 5.698 3.582 19.699 20.35 51.444 60.886 50.305 64.305 139.844 181.52 144.89 189.823 4.884 8.14 4.721 12.698-0.651 16.117-3.907 2.605-9.931 2.93-59.421 3.419l-55.026 0.488v335.038l-7.814 9.117-84.492 0.326c-46.397 0.163-85.469-0.163-86.771-0.651zM38.258 161.15c0-162.147 0-161.821 8.954-176.962 6.512-11.233 16.931-20.513 30.118-26.862l12.21-5.861h857.946l11.396 5.372c12.535 5.861 22.792 14.977 30.28 26.536 9.442 14.977 9.605 15.466 9.605 178.59v148.472h-133.494v-226.289h-693.52v226.289h-133.494v-149.286z" />
<glyph unicode="&#xe915;" glyph-name="Electrical" d="M280.636 954.644c-41.56-9.212-70.695-36.847-83.977-79.264-3.642-11.997-3.856-24.208-3.856-196.017s0.214-184.020 3.856-196.017c11.568-37.275 36.418-63.625 72.194-76.479l13.925-4.927h422.025l13.925 4.927c35.562 12.639 60.626 39.418 72.194 76.479 3.642 11.997 3.856 24.208 3.856 196.017s-0.214 184.020-3.856 196.017c-11.568 37.061-36.633 63.839-72.194 76.479l-13.925 4.927-205.657 0.428c-165.382 0.214-208.228-0.214-218.51-2.571zM660.030 900.659c4.927-2.571 12.854-9.212 17.567-14.567 16.067-18.423 15.424-8.569 15.424-206.728s0.643-188.305-15.424-206.728c-4.713-5.356-12.639-11.997-17.567-14.567l-8.783-4.713h-366.326l-8.783 4.713c-4.927 2.571-12.854 9.212-17.567 14.567-16.067 18.423-15.424 8.569-15.424 206.728s-0.643 188.305 15.424 206.728c8.355 9.64 16.495 14.996 27.421 18.423 2.999 0.857 86.333 1.5 185.305 1.285l179.95-0.428 8.783-4.713zM448.803 854.815c-44.987-5.356-87.833-28.492-115.682-62.554-13.068-15.853-30.42-50.343-35.562-71.123-5.57-22.065-5.141-63.197 1.071-85.69 8.997-33.419 24.208-59.341 48.629-82.477 17.995-17.138 23.993-21.423 43.488-31.063 52.7-26.136 118.038-23.565 167.525 6.641 38.989 23.565 68.767 64.054 80.335 109.041 5.57 22.065 5.141 62.982-1.071 85.69-16.281 60.412-60.412 107.113-118.038 124.894-12.639 3.856-21.423 5.356-47.13 7.712-4.070 0.428-14.782 0-23.565-1.071zM497.004 801.259c43.488-9.426 81.62-47.987 92.331-93.617 4.713-19.495 2.999-52.271-3.428-70.48-12.639-36.204-43.274-65.982-79.692-77.978-12.425-4.070-20.137-5.141-38.132-5.141s-25.707 1.071-38.132 5.141c-36.418 11.997-67.053 41.774-79.692 77.978-6.427 18.209-8.141 50.986-3.428 70.48 5.356 23.351 15.424 41.56 32.348 58.698 16.281 16.495 28.278 24.422 47.13 31.063 23.351 8.141 44.773 9.426 70.695 3.856zM395.247 707.856c-9.64-3.642-19.28-17.781-19.28-28.492 0-21.423 22.922-35.776 43.488-27.207 20.994 8.997 22.279 43.274 1.714 53.985-6.213 3.213-19.495 4.070-25.921 1.714zM513.714 705.285c-19.495-12.211-17.567-44.345 2.999-53.128 10.711-4.285 25.064-2.571 32.134 3.856 15.21 14.353 14.996 32.562-0.214 46.701-7.712 7.284-25.279 8.569-34.919 2.571zM391.177 353.098c-14.139-4.927-16.281-10.497-16.924-47.772l-0.643-32.991h-28.278c-24.208 0-29.349-0.643-35.133-4.285-7.498-4.499-13.496-14.139-13.496-21.851 0-11.782 14.139-25.279 26.35-25.279h5.356l1.071-46.487c0.643-36.204 1.714-49.272 4.713-58.484 13.71-43.916 48.415-79.478 90.832-93.617l17.138-5.57 0.643-28.492c0.643-32.777 2.999-38.132 18.423-43.702 7.926-2.785 9.64-2.571 16.495 0.643 13.496 6.427 16.067 13.71 16.067 44.559v26.992l16.71 5.356c43.702 14.567 74.551 44.987 89.975 89.332 5.141 15.21 5.57 19.28 6.427 62.982l0.857 46.487h5.57c12.211 0 26.136 13.925 26.136 25.707 0 7.284-6.213 16.924-13.496 21.423-5.784 3.642-10.926 4.285-35.133 4.285h-28.278l-0.643 32.991c-0.643 37.49-2.785 42.845-17.352 47.772-10.283 3.428-21.851-0.214-28.064-8.569-4.070-5.356-4.499-9.64-5.141-39.203l-0.643-32.991h-85.476v29.992c0 21.208-0.857 32.348-2.999 37.49-5.141 11.997-18.209 17.567-31.063 13.282zM555.916 179.146c0-37.275-0.428-42.845-4.499-53.985-8.997-24.208-23.993-40.060-48.201-51.414-11.354-5.356-14.996-5.998-36.204-5.998s-24.85 0.643-35.99 5.784c-16.924 7.926-33.633 24.422-42.417 41.988l-7.284 14.353-0.643 45.63-0.643 45.416h175.879v-41.774z" />
<glyph unicode="&#xe916;" glyph-name="Flooring" d="M70.531 959.269c-13.479-1.881-30.929-9.718-40.96-18.39-13.061-11.18-22.465-25.913-27.167-42.527-1.776-6.583-1.881-23.615-1.881-450.351 0-425.378 0.104-443.873 1.881-450.351 4.598-16.196 14.42-31.66 27.167-42.527 7.314-6.269 22.047-13.897 32.078-16.718 6.478-1.776 26.331-1.881 450.351-1.881h443.559l8.359 2.403c27.794 8.046 49.842 30.511 57.678 58.723 1.776 6.478 1.881 26.331 1.881 450.351 0 425.378-0.104 443.873-1.881 450.351-7.837 28.108-29.257 50.155-57.156 58.723l-7.837 2.403-441.469 0.104c-242.834 0.104-442.828-0.104-444.604-0.313zM179.2 781.322l-137.927-137.927-0.313 117.76c-0.209 84.741 0 119.641 0.94 124.134 3.030 16.091 14.838 28.63 30.72 32.496 3.971 0.94 34.795 1.358 124.865 1.358l119.641 0.104-137.927-137.927zM609.176 918.518c0-1.254-335.83-336.771-336.98-336.771-0.627 0-27.376 26.331-59.559 58.514l-58.514 58.514 220.473 220.473h117.238c64.575 0 117.342-0.313 117.342-0.731zM951.798 917.786c1.045-0.627-34.795-37.094-138.449-140.748l-139.912-139.912-143.673 143.673 138.449 138.449 141.061-0.209c79.099-0.209 141.688-0.731 142.524-1.254zM982.622 883.618c0.313-1.776 0.627-65.411 0.627-141.375v-138.031l-490.057-490.057-71.262 71.367-71.367 71.262 315.037 315.037c173.244 173.244 315.35 315.037 315.664 315.037 0.418 0 0.94-1.463 1.358-3.239zM643.657 608.392c0-0.522-135.105-136.15-300.304-301.349-222.459-222.459-300.513-299.886-301.14-298.841-0.522 0.836-1.045 63.425-1.254 142.524l-0.209 141.061 460.278 460.278 71.262-71.262c39.288-39.288 71.367-71.784 71.367-72.411zM184.111 611.318c32.078-32.078 58.305-58.723 58.305-59.35 0-1.149-199.68-201.143-200.934-201.143-0.418 0-0.731 52.767-0.731 117.238v117.342l42.005 42.005c23.197 23.197 42.318 42.109 42.632 42.109s26.749-26.227 58.723-58.201zM931.527 258.873l-51.722-51.722-58.723 58.828-58.828 58.723 220.473 220.473 0.313-117.238 0.209-117.342-51.722-51.722zM750.237 77.061l-100.833-100.206-235.102-0.104 318.694 318.694 118.073-118.178-100.833-100.206zM982.204 10.71c-3.135-16.509-15.673-29.257-32.183-32.81-3.866-0.836-40.229-1.149-123.82-1.149h-118.282l274.808 274.808 0.313-117.238c0.209-84.010 0-119.118-0.836-123.611zM393.404 156.473l71.053-71.053-108.669-108.669-140.748 0.209c-77.322 0.209-141.061 0.731-141.479 1.149-0.731 0.731 246.805 249.417 248.268 249.417 0.313 0 32.496-31.974 71.576-71.053z" />
<glyph unicode="&#xe917;" glyph-name="Floors" d="M150.187 463.929v-400.498h-81.92v-31.858h887.467v31.858h-81.92v800.996h-723.627v-400.498zM841.956 448v-384.569h-72.818v696.32h-514.276v-696.32h-72.818v769.138h659.911v-384.569zM496.071 395.662v-332.231h-209.351v664.462h209.351v-332.231zM737.28 395.662v-332.231h-209.351v664.462h209.351v-332.231z" />
<glyph unicode="&#xe918;" glyph-name="Foyer" d="M57.051 946.73l-4.702-3.971v-455.68l-0.104-455.68-18.913-0.731c-10.449-0.418-20.584-1.358-22.674-1.985-2.194-0.836-4.807-2.926-6.896-5.747l-3.239-4.598-0.313-30.824-0.418-30.929 5.538-5.538 5.538-5.642h1002.266l5.538 5.642 5.538 5.538-0.418 30.929-0.313 30.824-3.239 4.598c-2.090 2.821-4.702 4.911-6.896 5.747-2.090 0.627-12.225 1.567-22.674 1.985l-18.913 0.731v5.538c0 7.21 0.627 8.464 5.12 10.867 2.090 1.045 5.747 3.657 8.255 5.747l4.389 3.866v64.157l-12.121 11.912h-71.471v53.603l0.104 53.499 8.046 4.911c17.868 10.867 33.959 27.899 42.527 45.244 5.538 11.285 6.792 17.972 6.792 36.676 0 12.434-0.313 14.629-3.762 26.645-2.403 8.359-3.448 14.211-3.135 16.509 0.313 1.881 3.553 8.986 7.21 15.673 13.27 24.137 17.763 38.975 17.868 59.141 0.104 15.36-2.299 24.242-9.613 36.049l-4.911 7.837 0.313 14.629c0.627 23.615-3.344 35.109-16.509 48.588-19.122 19.54-50.991 27.69-74.188 18.913-17.972-6.896-47.647-34.586-52.558-49.215-3.762-11.285-4.598-27.167-2.194-45.558 0.627-5.016 0.209-6.269-6.165-20.376-11.076-24.451-14.106-37.303-12.957-55.066 0.836-13.061 3.553-22.57 11.076-38.87 3.344-7.21 6.374-14.211 6.687-15.569s-0.104-6.374-1.045-10.971c-1.985-10.344-1.358-24.451 1.776-40.856 4.911-25.913 10.867-40.542 20.062-49.633 6.060-5.956 16.614-11.389 23.824-12.225l5.224-0.627v-98.952h-18.495c-27.167-0.104-53.603-1.672-58.096-3.448-7.314-3.135-7.419-3.762-7.523-36.153 0-15.882 0.418-31.033 0.836-33.75 1.045-5.956 4.807-10.867 9.091-11.807s5.016-2.299 5.851-10.24l0.731-7.001h-52.558v910.942l-4.911 4.284-5.016 4.284h-678.557l-4.702-3.866zM685.453 909.322l-7.732-7.837h-553.064l-5.851 6.165c-3.344 3.448-5.956 6.687-5.956 7.314 0 1.463 29.78 1.672 333.845 1.985l246.491 0.209-7.732-7.837zM94.877 883.409l7.523-7.523v-897.045h-16.718v456.098c0 250.88 0.313 456.098 0.836 456.098 0.418 0 4.18-3.448 8.359-7.628zM715.755 434.416v-455.576h-15.673v896.94l7.001 7.105c3.866 3.971 7.419 7.105 7.837 7.105 0.522 0 0.836-205.009 0.836-455.576zM665.6 421.773v-443.141l-264.046 0.731c-145.345 0.418-264.255 0.836-264.255 0.94-0.104 0-0.522 199.158-0.94 442.41l-0.731 442.201h529.972v-443.141zM914.39 537.966c3.135-1.254 7.732-3.866 10.031-5.851 6.478-5.538 7.732-9.822 8.673-30.302 1.045-20.062 2.612-26.958 8.568-36.153 5.433-8.464 6.374-12.434 5.851-22.779-0.731-11.703-5.329-25.391-13.375-39.811-7.419-13.27-10.449-22.047-11.18-32.392-0.522-6.792-0.104-9.718 3.135-21.943 4.807-17.972 5.433-22.988 3.866-31.347-1.985-11.389-6.478-19.226-16.614-29.257-17.241-17.032-39.915-26.331-47.438-19.435-8.359 7.732-11.703 25.496-12.748 68.545l-0.627 24.555-15.047 30.093v32.078l8.673 16.927 8.568 17.032v19.853c0.104 21.316 1.045 31.974 3.239 36.676 1.672 3.448 23.406 21.42 29.675 24.555 5.433 2.717 18.181 2.194 26.749-1.045zM955.664 90.958c-0.418-4.493-0.94-8.359-1.254-8.568-0.209-0.209-30.511-0.627-67.291-0.94l-66.873-0.522v18.077h136.15l-0.731-8.046zM938.318 12.8v-33.959h-102.4v67.918h102.4v-33.959zM50.155-12.278v-8.882h-15.673v17.763h15.673v-8.882zM802.273-11.964l-0.313-8.673-24.764-0.313-24.869-0.209v17.763h50.26l-0.313-8.568zM987.429-5.486c1.567-1.567 2.090-3.448 2.090-7.21 0-2.821 0.313-5.851 0.627-6.792 0.522-1.463-0.522-1.672-7.837-1.672h-8.464v17.763h5.747c4.389 0 6.269-0.522 7.837-2.090zM176.274 826.462l-4.911-5.016v-354.325l4.284-4.911 4.284-4.807 186.305 0.104 4.911 5.956 5.016 5.956-0.104 138.449c0 76.173-0.418 155.167-0.836 175.647-0.731 36.153-0.836 37.303-3.135 40.438-1.254 1.881-3.971 3.762-6.165 4.493-4.389 1.358-72.725 2.821-141.27 2.926l-43.468 0.104-4.911-5.016zM341.682 643.918v-153.078h-137.927v306.155h137.927v-153.078zM431.647 825.313l-5.329-6.165v-143.987c0-79.308 0.313-158.616 0.731-176.274l0.627-32.183 4.075-4.598 4.18-4.702 186.305 0.104 5.016 6.165 4.911 6.060-0.104 136.255c0 74.815-0.418 153.809-0.836 175.438-0.731 38.348-0.836 39.288-3.135 42.527-1.254 1.881-3.866 3.762-6.165 4.493-4.493 1.358-72.411 2.821-140.957 2.926l-43.99 0.104-5.329-6.165zM597.682 643.918v-153.078h-137.927v306.155h137.927v-153.078zM567.38 439.745c-6.165-0.418-10.031-1.358-12.539-2.821-11.598-6.687-11.285-23.197 0.522-29.153 3.866-1.881 6.792-2.090 38.975-2.403 19.226-0.209 36.989-0.104 39.497 0.313 5.851 0.836 11.18 5.329 13.479 11.389 2.299 5.956 0.731 11.912-4.598 17.554l-3.866 4.18-12.016 0.94c-13.375 0.94-45.976 0.94-59.455 0zM186.723 387.396c-7.21-0.94-10.762-3.239-13.688-8.986-2.194-4.075-2.194-4.18-2.194-179.827v-175.856l5.224-4.598 5.224-4.702 183.171-0.104 10.658 9.613v355.683l-10.031 9.822-86.1-0.104c-47.438-0.104-88.921-0.522-92.264-0.94zM299.154 354.273l41.482-0.627v-305.842h-135.837v305.11l2.403 0.522c6.687 1.463 36.676 1.776 91.951 0.836zM441.783 387.396c-7.628-0.94-10.867-3.135-12.33-8.046-2.926-10.24-3.344-42.632-2.926-198.635l0.522-158.093 10.24-9.195 183.171-0.104 10.658 9.613v355.683l-10.031 9.822-86.622-0.104c-47.752-0.104-89.443-0.522-92.682-0.94zM555.154 354.273l41.482-0.627v-305.842h-135.837v305.11l2.403 0.522c6.687 1.463 36.676 1.776 91.951 0.836z" />
<glyph unicode="&#xe919;" glyph-name="FullBath" d="M214.812 828.018c-8.192-5.006-18.66-15.474-23.666-23.666-8.647-14.108-9.102-23.211-9.102-182.044v-167.481h-68.267v-100.124h11.378c10.923 0 11.378-1.365 11.378-25.941 0.455-70.997 16.839-117.874 55.524-158.834 24.576-26.396 76.914-56.434 97.394-56.434 21.39 0 24.576-4.096 24.576-32.313v-27.307l88.747 2.731 1.365 26.396 1.365 25.941h213.447v-54.613h91.022v26.852c0 29.127-0.91 28.217 31.858 34.588 46.421 9.102 103.765 57.344 126.521 105.586 10.468 22.756 12.288 33.678 13.653 80.1l1.82 53.248h26.396v100.124h-696.32v326.315l11.378 12.288c24.576 26.396 65.991 8.192 65.991-29.127 0-13.198-1.82-18.204-6.827-18.204-3.641 0-13.198-5.916-21.39-13.198-13.198-11.378-14.564-15.929-16.384-43.236l-1.82-30.037h128.341v20.48c0 31.858-10.468 51.428-31.858 60.53-16.384 7.282-18.204 9.102-18.204 25.031 0 23.211-14.564 50.062-33.223 61.895-20.48 12.743-54.613 12.743-75.093 0.455zM878.364 407.040v-15.929h-732.729v31.858h732.729v-15.929zM850.603 306.005c-1.82-42.325-3.641-52.793-14.564-74.638-15.019-31.403-45.056-60.075-79.644-76.004l-25.941-12.288h-436.907l-25.941 12.288c-33.223 15.474-65.081 47.332-80.1 80.1-9.102 20.48-11.833 34.588-13.653 72.363l-2.276 46.876h680.391l-1.365-48.697z" />
<glyph unicode="&#xe91a;" glyph-name="HalfBath" d="M210.944 902.656c-3.072-3.072-6.144-9.216-6.144-12.8 0-5.12-13.312-6.656-54.272-6.656h-54.784l-22.016-22.528c-21.504-20.992-22.528-23.552-22.528-51.712 0-34.304 10.24-54.784 34.304-70.144 13.312-7.68 16.896-13.824 16.896-26.112 0.512-9.216 5.632-86.016 11.776-170.496 8.192-107.52 13.824-157.184 18.432-162.816 5.632-6.656 16.896-8.192 56.832-8.192h49.664l33.792-71.68 34.304-72.192v-113.664c0-81.92 1.536-115.712 6.144-120.32s53.248-6.144 186.88-6.144h180.736l6.656 11.264c4.096 6.656 11.776 31.744 16.896 56.832l9.728 45.056 38.4 18.944c55.808 27.136 109.568 81.408 137.216 139.264 11.776 24.064 24.064 59.392 27.648 78.336 5.632 29.696 8.704 36.352 20.992 43.52 22.528 13.312 34.304 36.864 34.304 68.096 0 30.72-10.24 50.688-33.792 66.56-13.824 9.216-28.16 9.728-235.008 9.728s-221.184-0.512-235.008-9.728c-23.552-15.36-33.792-35.84-33.792-65.536v-27.136h-23.040c-27.648 0-26.624-16.896-12.8 161.28 5.632 73.216 10.24 137.216 10.24 142.336 0 4.608 3.072 8.704 6.656 8.704 7.68 0 30.208 23.040 38.912 39.424 7.68 15.36 7.168 50.688-1.536 67.072-4.096 7.68-13.312 19.456-20.992 26.624-12.288 11.776-18.432 12.8-68.608 14.336-50.688 1.536-55.296 2.56-59.392 12.8-4.608 10.24-9.728 11.264-46.080 12.8-27.648 1.024-43.008-0.512-47.616-5.12zM391.168 826.88c10.24-3.584 13.312-8.192 13.312-20.48s-3.072-16.896-13.312-20.48c-7.168-3.072-68.096-5.12-135.168-5.12s-128 2.048-135.168 5.12c-17.92 6.656-18.944 33.792-1.536 40.96 15.36 6.144 255.488 6.144 271.872 0zM353.28 723.456c0-3.584-4.608-68.608-10.24-144.896-5.632-75.776-10.24-142.336-10.24-146.944 0-8.192-7.168-9.216-76.8-9.216s-76.8 1.024-76.8 9.216c0 4.608-4.608 69.632-10.24 144.384s-10.24 139.776-10.24 144.896c0 8.192 8.192 8.704 97.28 8.704 74.24 0 97.28-1.536 97.28-6.144zM903.168 468.48c18.944-7.168 18.944-33.792 0-40.96-7.68-3.072-90.624-5.12-199.168-5.12s-191.488 2.048-199.168 5.12c-17.92 6.656-18.944 33.792-1.536 40.96 15.36 6.144 383.488 6.656 399.872 0zM863.232 349.696c-5.632-37.376-36.352-94.208-68.096-127.488-27.136-28.16-83.968-63.488-117.248-72.192-9.216-2.56-12.8-11.264-22.016-50.176-5.632-25.6-10.752-50.176-10.752-54.272 0-6.144-22.528-7.168-143.36-7.168h-143.36v215.040l-28.16 56.32c-15.36 30.72-28.16 57.344-28.16 58.88s126.976 2.56 282.112 2.56h282.624l-3.584-21.504z" />
<glyph unicode="&#xe91b;" glyph-name="Hallway" d="M81.92 448v-337.92h860.16v675.84h-860.16v-337.92zM837.12 740.352c-3.072-2.048-57.344-34.304-121.344-71.68l-116.224-67.072h-175.104l-116.224 67.072c-64 37.376-118.272 69.632-120.832 71.68-3.072 2.56 139.776 4.608 324.608 4.608s327.68-2.048 325.12-4.608zM267.264 638.464l139.776-81.408v-217.6l-139.776-81.408c-76.8-45.056-140.8-81.408-142.336-81.408-1.024 0-2.048 122.368-2.048 271.36 0 149.504 1.024 271.36 2.56 271.36 1.024 0 65.024-36.352 141.824-80.896zM901.12 448c0-148.992-1.024-271.36-2.048-271.36-1.536 0-65.536 36.352-142.336 81.408l-139.776 81.408v217.6l138.24 80.896c76.288 44.544 139.776 80.896 142.336 80.896 2.048 0.512 3.584-121.344 3.584-270.848zM573.44 448v-112.64h-122.88v225.28h122.88v-112.64zM723.456 222.72l123.392-71.68h-669.696l245.248 142.848 88.576 0.512h88.576l123.904-71.68zM174.080 448v-184.32h40.96v368.64h-40.96v-184.32zM256 448v-133.12h40.96v266.24h-40.96v-133.12zM337.92 448v-92.16h40.96v184.32h-40.96v-92.16zM808.96 448v-184.32h40.96v368.64h-40.96v-184.32zM727.040 448v-133.12h40.96v266.24h-40.96v-133.12zM645.12 448v-92.16h40.96v184.32h-40.96v-92.16z" />
<glyph unicode="&#xe91c;" glyph-name="Images" d="M230.704 842.22c-17.809-7.285-36.427-28.737-42.498-49.783-7.285-24.285-7.69-57.474-0.809-71.235 10.928-21.856 38.046-25.499 55.45-8.095 6.476 6.476 8.095 13.761 8.095 33.594 0 14.571 2.024 27.523 4.857 30.356 3.643 3.643 86.21 4.857 347.27 4.857 188.206 0 344.436-1.619 347.27-3.238 4.047-2.833 4.857-55.045 4.047-248.108l-1.214-244.465-29.142-2.024c-35.213-2.428-47.355-11.333-47.355-34.808s15.38-33.998 48.974-33.998c14.571 0 33.998 2.428 43.308 4.857 21.047 6.476 43.712 29.142 50.188 50.188 6.881 23.475 6.881 503.905 0 524.142-7.285 21.047-19.428 35.213-37.641 44.117-16.19 8.095-25.094 8.095-378.84 7.69-229.085 0-365.483-1.619-371.959-4.047zM57.069 674.656c-20.642-6.476-39.665-23.070-47.355-41.284-8.095-19.023-8.5-521.309 0-540.737 6.881-17.404 30.76-37.641 49.783-42.903 21.856-6.071 701.42-6.071 723.681 0 23.070 6.476 42.093 22.261 50.998 42.498 7.69 16.594 7.69 29.142 6.881 276.44l-1.214 258.631-12.142 17.404c-6.476 9.309-19.428 21.047-28.332 25.499-16.19 8.5-19.832 8.5-370.34 9.309-291.010 0.809-357.388-0.405-371.959-4.857zM772.25 401.859l0.809-207.633-28.737 25.499c-99.567 88.639-156.231 137.208-162.302 138.422-3.643 1.214-39.26-15.38-78.925-36.427-67.187-36.022-72.044-37.641-77.306-30.76-2.833 4.047-31.975 49.783-63.949 101.591-32.379 51.807-63.14 97.138-68.402 100.376-12.142 7.69-4.857 11.738-122.232-67.187-52.617-35.617-97.138-64.759-99.162-64.759-5.666 0-4.047 240.417 1.619 246.084 3.643 3.643 84.996 4.857 351.317 4.047l346.055-1.214 1.214-208.038zM343.627 336.696c33.594-54.236 62.735-100.376 64.759-102.4 8.5-8.5 26.713-2.024 93.091 33.594 53.021 28.332 71.64 36.427 77.306 33.998 4.047-2.024 49.379-40.879 100.781-86.615 70.83-62.735 93.496-84.996 92.686-91.067-1.214-8.095-4.452-8.095-346.865-9.309-251.75-0.405-346.865 0.405-350.912 3.643-4.452 3.643-5.666 23.475-5.666 94.305l0.405 89.448 104.019 69.211c57.069 38.451 105.233 68.402 106.852 66.783 1.214-1.214 29.951-46.95 63.545-101.591zM626.138 533.401c-67.187-24.689-68.402-118.185-2.024-146.112 21.451-8.904 39.26-7.69 63.14 4.452 69.616 34.808 50.188 136.398-27.927 145.303-10.523 1.214-24.285-0.405-33.189-3.643zM664.183 490.498c13.761 0 24.285-28.332 17.404-46.545-4.047-9.714-24.285-18.618-36.022-15.785-12.547 3.238-26.308 19.832-26.308 31.57 0 17.404 21.856 37.236 35.617 32.379 3.238-0.809 7.285-1.619 9.309-1.619z" />
<glyph unicode="&#xe91d;" glyph-name="Incompatabilities" d="M424.415 869.801c-5.229-2.179-11.765-9.151-14.38-14.815-6.536-14.38-6.536-154.689 0-168.633 8.279-17.866 21.351-20.48 99.786-20.48 44.882 0 77.998 1.743 84.099 4.793 17.866 8.279 20.48 21.351 20.48 99.786s-2.614 91.506-20.48 99.786c-13.508 6.1-156.868 6.1-169.505-0.436zM197.392 590.924c-11.765-5.665-16.123-16.994-47.060-120.701-30.502-102.4-31.374-135.517-3.486-148.153 14.815-6.972 711.135-6.972 725.951 0 27.888 12.637 27.016 45.753-3.486 148.153-31.809 106.322-35.295 115.037-48.368 121.137-14.815 6.536-609.607 6.536-623.551-0.436zM568.211 535.149c83.663-26.145 83.663-95.864 0-122.009-89.763-27.452-193.035 14.815-178.22 72.769 11.329 45.753 105.014 71.462 178.22 49.239zM483.677 243.636c-48.803-15.687-75.82-51.854-75.82-100.657 0-59.697 41.831-101.964 101.964-101.964s101.964 42.267 101.964 101.964c0 41.396-19.173 73.641-55.775 92.378-18.737 9.586-55.775 13.944-72.334 8.279z" />
<glyph unicode="&#xe91e;" glyph-name="Kitchen" d="M7.282 912.213c-5.916-6.372-6.827-57.799-7.282-446.464 0-476.501-1.365-450.56 25.031-475.136l12.288-11.378 469.22-1.365c462.393-0.91 470.13-0.91 484.693 8.192 8.192 5.006 18.66 15.474 23.666 23.666 9.102 14.564 9.102 23.666 9.102 455.111-0.455 389.575-1.365 441.003-7.282 447.374-6.372 5.916-63.26 6.827-504.718 6.827s-498.347-0.91-504.718-6.827zM983.040 796.16v-81.92h-942.080v163.84h942.080v-81.92zM977.579 667.819c7.737-7.737 7.737-636.7 0-644.437s-923.42-7.737-931.157 0c-7.737 7.737-7.737 636.7 0 644.437s923.42 7.737 931.157 0zM108.772 844.857c-10.012-6.827-17.749-17.294-22.3-29.582-5.916-16.839-5.916-21.39 0-38.229 8.647-24.576 30.492-40.050 56.434-40.050 23.211 0 47.787 14.108 54.158 31.858 2.731 7.737 6.372 13.653 7.737 13.653s5.006-5.916 7.737-13.653c6.372-17.294 30.948-31.858 53.703-31.858s47.332 14.564 53.703 31.858c6.372 16.839 9.102 16.839 15.474 0 6.372-17.294 30.948-31.858 53.703-31.858s47.332 14.564 53.703 31.858c2.731 7.737 6.372 13.653 7.737 13.653s5.006-5.916 7.737-13.653c6.372-17.749 30.948-31.858 54.158-31.858 25.941 0 47.787 15.474 56.434 40.050 5.916 16.839 5.916 21.39 0 38.229-8.647 24.576-30.492 40.050-56.434 40.050-23.211 0-47.787-14.108-54.158-31.858-2.731-7.737-6.372-13.653-7.737-13.653s-5.006 5.916-7.737 13.653c-6.372 17.294-30.948 31.858-53.703 31.858s-47.332-14.564-53.703-31.858c-2.731-7.737-6.372-13.653-7.737-13.653s-5.006 5.916-7.737 13.653c-6.372 17.294-30.948 31.858-53.703 31.858s-47.332-14.564-53.703-31.858c-2.731-7.737-6.372-13.653-7.737-13.653s-5.006 5.916-7.737 13.653c-11.378 30.037-58.709 41.415-88.292 21.39zM678.116 796.16v-18.204h100.124v36.409h-100.124v-18.204zM89.202 625.038c-6.372-6.372-7.282-33.223-7.282-228.921 0-166.116 1.365-223.004 5.461-227.1 7.737-7.737 841.5-7.737 849.237 0 4.096 4.096 5.461 60.985 5.461 227.1 0 195.698-0.91 222.549-7.282 228.921s-50.972 7.282-422.798 7.282c-371.826 0-416.427-0.91-422.798-7.282zM901.12 395.662v-195.698h-778.24v391.396h778.24v-195.698zM230.741 483.044c-38.684-39.14-44.601-46.876-43.236-58.254 0.91-10.923 3.641-13.653 14.564-14.564 11.378-1.365 19.115 4.551 58.254 43.236s44.601 46.421 43.691 58.254c-1.365 11.378-3.641 13.653-15.019 15.019-11.833 0.91-19.57-4.551-58.254-43.691zM104.676 99.84v-18.204h814.649v36.409h-814.649v-18.204z" />
<glyph unicode="&#xe91f;" glyph-name="LivingRoom" d="M289 805.6c-2.2-19.8-17-186-17-191.8v-5.8h112l0.4-241.4 0.6-241.6 4.2-9.2c11-23.8 28-33.8 59.8-35.4 24.2-1 39.2 1.8 51.6 9.6 8 5 9.4 5.4 11.6 2.8 1.4-1.8 6.2-5 10.6-7.4l8.2-4.4h298l8.2 4.4c4.4 2.4 9.2 5.6 10.6 7.4 2.2 2.6 3.6 2.2 11.6-2.8 12.4-7.8 27.4-10.6 51.8-9.6 17 0.8 22.2 1.8 31.4 6.4 12.6 6.2 22 15.8 28.2 29 4 9 4.2 11.8 4.2 108.2s-0.2 99.2-4.2 108.2c-10.6 22.6-28.2 33.6-56.6 35.4l-17.8 1-0.8 58.2c-0.8 54.4-1 59-5.4 71.2-12.2 35-38.4 61-72.6 72.2l-14.6 4.8h-246l-14.6-4.8c-34.2-11.2-60.4-37.2-72.6-72.2-4.4-12.2-4.6-16.8-5.4-71.4l-0.8-58.6h-12.2c-11.6 0-20.4-1.4-30.8-4.8l-4.6-1.4v246.2h112v5.8c0 5.8-14.8 172-17 191.8l-1.2 10.4h-219.6l-1.2-10.4zM482 782.6c0-1 2.8-30.4 6-65.6s6-67 6-70.4v-6.6h-188v6.6c0 3.4 2.8 35.2 6 70.4s6 64.6 6 65.6c0 0.8 37 1.4 82 1.4 45.2 0 82-0.6 82-1.4zM818.2 536.6c16-8 31.8-24 39.4-40l5.4-11.6 1.2-120.8-12.8-12.6c-10.4-10.2-13.6-14.8-16.2-23.6-1.8-5.8-3.2-13.6-3.2-17v-6.2l-14.4 7-14.4 7.2h-246.4l-14.4-7.2-14.4-7v6.2c0 3.4-1.4 11.2-3.2 17-2.6 8.8-5.8 13.4-16.2 23.6l-12.8 12.6 1.2 120.8 5.4 11.4c6.2 13.6 21 29.8 33.2 37 17.8 10.6 16.4 10.4 147.4 10l122-0.4 13.2-6.4zM483.4 332c13-7.8 12.8-6 12.2-111l-0.6-95-6.6-6.4-6.4-6.6h-52l-6.4 6.6-6.6 6.4v195.6l5 5.4c7.2 7.8 10.6 8.8 34 8.8 17.4 0.2 22-0.4 27.4-3.8zM936.4 328.4l6.6-6.4v-196l-6.6-6.4-6.4-6.6h-52l-6.4 6.6-6.6 6.4-0.6 95c-0.6 105-0.8 103 12.2 111.2 5.6 3.4 9.2 3.8 29.8 3.4l23.6-0.6 6.4-6.6zM800.2 285c11.6-4.2 24.8-17.4 28.8-28.8 1.6-4.8 3-14.2 3-20.6v-11.6h-304v11.6c0 16.2 4.6 28.2 14.6 38 14.8 14.4 11 14.2 136.6 14.2 96.2 0.2 113.6-0.2 121-2.8zM832 157c0-34.6 0-35.2-5-40l-4.8-5h-284.4l-4.8 5c-5 4.8-5 5.4-5 40v35h304v-35zM193.8 631.4c-14.8-12.4-32.4-40.8-37.6-60.6l-2.2-8-17 5.6c-12.2 4.2-23 6.2-37.4 7l-20.2 1.2 1.2-17.8c2.2-34.4 13-61.4 33-83.2l10.8-11.6h-8.2c-4.6 0-8.2-0.6-8.2-1.4 0-1 7.2-26.2 15.8-56l15.6-54.6h-91.4v-272h32v80h240v-80h32v272h-91.4l15.6 54.6c8.6 29.8 15.8 55 15.8 56 0 0.8-3.2 1.4-7.2 1.4h-7.2l9.2 10.2c19.6 21.8 30.6 49.6 32.6 82.4l1.2 19.4h-11.8c-16.2-0.2-40.2-4.6-51.8-9.8-5.4-2.4-9.8-4-10.2-3.6s-2.4 6.2-4.6 13c-2 7-7.4 18.6-11.8 26-7.6 12.6-26.4 34.4-29.8 34.4-1 0-4-2-6.8-4.6zM208.2 577.4c8.4-18 10.8-34 8-52.4-2.2-15.4-8.2-33.2-13.2-39.8-3-4-3-4-6 0-10.6 13.8-16.6 52-11.8 73.2 3.2 13.2 11.8 31.6 15 31.6 1 0 4.6-5.8 8-12.6zM143 533c7.4-4.2 8-5.2 10.2-18.2 1.2-7.6 4.6-19.6 7.4-26.8 3-7 4.8-13.2 4.4-13.8-2-2-24 15.2-31.4 24.6-11.6 14.8-23.6 40.6-20.2 44 1.6 1.6 21-4.8 29.6-9.8zM288 542.4c0-4.8-8.8-26.2-14.2-34.8-9.2-14.2-35.6-36.6-39-33-0.4 0.4 1.2 5.2 3.4 10.6 5.6 12.4 9.8 28 9.8 36.2 0 7.2 6.6 12 25.6 18.6 13 4.4 14.4 4.6 14.4 2.4zM249.8 428.6c0-2-4.8-19.8-10.6-39.6l-10.4-36h-57.6l-10.4 36c-5.8 19.8-10.6 37.6-10.6 39.6-0.2 3.2 3.4 3.4 49.8 3.4s50-0.2 49.8-3.4zM320 256v-64h-240v128h240v-64zM160 256v-16h80v32h-80v-16z" />
<glyph unicode="&#xe920;" glyph-name="Logins" d="M827 957.8c-3.2-1-8.2-1.4-11-0.8-3.8 0.8-4.2 0.6-2-1 2.6-1.6 2.6-2-0.2-2-1.6 0-10.6-3.8-20-8.4-9.2-4.6-17.6-8.8-18.6-9.2-1-0.6-1 0.2-0.2 1.6 1 1.8 0.8 2.2-0.8 1.2-1.2-0.8-1.8-2.2-1.2-3 0.4-1-2.6-4.2-6.8-7.2-18.8-13-41-40.8-51.6-64.6-16.8-38-16.8-90.8 0-128.8 10.6-23.8 32.8-51.6 51.6-64.6 4.2-3 7.2-6.2 6.8-7.2-0.6-0.8 0-2.2 1.2-3 1.6-1 1.8-0.6 0.8 1.2-1.8 3-2 3 16.4-6.4 24.8-13 41.4-16.6 73.6-16.6 27.2 0.2 28.6 0.4 49 7.8 11.6 4.2 22.6 7.6 24.4 7.8s3 0.8 2.4 1.6c-0.4 0.8 3.4 3.8 8.4 6.8 5.2 3 12.8 8.6 17.2 12.6 4.2 3.8 8.2 6.4 8.8 6 0.8-1-8-8.2-27.2-22.2-4.8-3.4-4.8-3.4 1.6 0 10.4 5.6 30.4 22.8 39.4 33.6 4.4 5.4 6.8 9.2 5.4 8.2-3.8-2.2-2.8 0.4 2.6 7.6 6.2 8 20 37.8 22 47.2 1.2 5.4 1.8 6.2 2.8 3.4 0.8-2 1.6 12 1.8 31 0.6 32.2 0.2 35.8-4.6 52.6-8 27-19.2 46.8-39 67.8-11.4 12.2-14.2 16-8.6 11.6 4.6-3.6 13.2-12.6 18.8-20 11.8-15.2 15.2-19 12.8-14.4-4.4 8-22.2 28.6-31.4 36.4-5.8 4.8-9.8 7.4-8.8 6.2 0.8-1.4 1-2.6 0.6-2.6-1 0-21.8 13.8-23.4 15.4-1.6 1.8 8.6-3.8 14.6-7.8 3-2.2 5.4-3.4 5.4-2.6 0 2.6-18.6 12.6-21.6 11.6-2-0.8-2.6-0.4-1.6 1 1 1.6 0.2 2-2 1-2.4-0.8-3-0.6-2 1 0.8 1.4 0.4 2-1.2 1.4-1.4-0.6-8.4 1.2-15.6 4-14 5.2-14 7 0 2 4.8-1.6 9-2.6 9.4-2.2s-3.4 2.2-8.8 3.8c-11.2 3.4-79.8 4.4-89.6 1.2zM897 924.8c40.4-10.4 76.2-44.4 89.2-84.8 8.8-27 7-66.2-4.4-91.8-4-9.4-20-34.2-21.8-34.2-0.6 0-3.2 3.8-5.8 8.4-6.6 11.6-20.6 26.2-32.4 33.8-9.6 6-9.8 6.6-6.8 10.6 19.8 27.4 18 62-4.8 85.8-4 4.2-9.8 9-12.8 10.6-3.2 1.8-5 4-4.2 5.2s0.6 1.6-0.8 1c-1-0.8-7.6 0-14.4 1.8-15.6 4-27 2.6-43.4-5.4-24.4-11.8-37.8-34.4-36.2-61.8 1-15.2 7.2-32 14.4-37.8 2.6-2.2 1.4-3.6-8.8-10.6-6.6-4.4-16.2-12.6-21.2-18.2-5.2-5.8-7.4-7.6-5.2-4.2 4.2 6.2 14.2 15.8 25.4 24.4 5 3.8 5.2 4.2 1 2.2-7.2-3.6-32.6-29.4-31-31.8 2.2-3.4-2.8-10-6.6-8.6-3 1.2-3 1-0.6-2.6 1.4-2-0.4-0.4-4.4 3.8-9.2 9.8-18.6 29.4-23.4 48.6-12.4 48.6 6.4 103.2 46 133 18.4 14 38.2 22 66 26.6 8.4 1.4 34.2-0.8 47-4zM880.2 835.4c3.6-2.4 8.8-7.6 11.4-11.4 4-5.8 4.6-8.8 4-18.6-0.6-7.2-2.4-13.4-4.8-17-5-6.8-19.6-14.4-27.8-14.4-10.8 0-23.4 8-28.6 18-11.8 22.8 3.4 48 28.6 48 7.6 0 12.2-1.2 17.2-4.6zM890.8 736c14.2-5.4 31.2-20.8 38.2-34.6l5.2-10.4-15.8-7.6c-27.8-13.4-58.4-16.2-89.2-8.2-14.6 3.8-35.2 14-35.2 17.4 0 4.8 8.4 18.4 16.6 27 7.6 7.8 13.4 11.4 10.2 6-0.8-1.4-0.6-1.6 1-0.8 1.2 0.8 1.8 2.4 1 3.4-1.4 2.2 14 9.4 25.8 11.8 11.8 2.6 29 0.8 42.2-4zM573 870c-2.8-2.8-5-6-5-6.8s2.4 1.2 5.2 4.6c2.8 3.4 6 6.2 6.8 6.2 1 0-1-2.8-4.4-6-6-6.2-6.4-9.4-2.6-18.8 1.2-2.8 1-3.4-0.6-2.4-6.8 4.2-0.6-2 13.2-13.2 8.4-6.8 14.2-11 12.8-9.2-1.6 2-7.2 6.8-12.6 11-5.4 4-9.4 7.8-9 8.2s8.6-5.6 18.2-13.4l17.2-14.2-361.2-1-12-6c-6.6-3.2-12.8-6.2-13.8-6.6-1-0.6-1 0.2 0 1.8 1.2 2.4 1 2.4-1.8 0-2-1.6-3-3.2-2.4-3.8 0.4-0.6-3.2-5.4-8.2-10.8-16-17-20.2-31.8-21-72.6-0.4-22-0.2-23.4 4.2-27.6 2.4-2.4 3.8-3.2 3-1.6-1.4 2.2-0.8 2.6 2.2 1.2 6.6-3 15-1.8 19.4 2.8 4 3.8 4.6 7 5.6 32.8 1 27 3.8 41 7.6 38.6 0.8-0.6 3.4 0.8 5.4 3.2 2.2 2.2 6.6 5.8 9.8 7.8 3.4 2.2 5 3.8 3.8 3.8-2.4 0-12.2-7.2-16.4-12-2.4-2.6-2.6-2.6-1.8 0 1.2 4.6 15.6 14 24.6 16 4.4 1.2 84 2 180.4 2h172.6l-17-14c-16.6-13.8-20.8-16.4-18-11.4 0.8 1.2-0.4 0.6-2.8-1.4-4.8-4.2-5.8-6.4-2-4 1.6 1 1.8 0.4 0.6-2.4-3.8-9.4-3.4-12.6 2.6-18.8 7-7 13.8-7.6 21-2 5.8 4.6 8.4 5.2 6 1.6-1.2-2.4 7.8 5 56.8 45 10.2 8.2 14 12.6 13.2 14.8-0.8 2-0.4 2.8 0.8 2 2.2-1.4 0.8 7.4-2.6 15.4-1 2.8-0.8 3.4 0.8 2.4 8.2-5-2.4 4.2-36.6 32-37.2 30.2-39.4 31.6-48 31.8-7.4 0-10-1-14-5zM431 820l-172-1 173.6-0.6c115.4-0.2 173.2 0.2 172.4 1.6-0.6 1.2-1.4 1.8-1.6 1.6-0.2-0.4-77.8-1-172.4-1.6zM434.6 780.6l167.8-0.6-11.2-9.2c-6.2-5-11.2-9.4-11.2-10 0-0.4 5.8 3.8 13 9.6 7.2 5.6 13 10.6 13 11s-76.2 0.4-169.4 0.2l-169.6-0.6 167.6-0.4zM185 657.8c-7.6-1-16.6-1.2-20-0.8-4 0.6-4.8 0.4-2.4-0.6 2.6-1.2 0-2.4-10-5.2-16.6-4.2-47.6-18.8-60.8-28.2-10.4-7.4-13-8.6-10.6-4.4 3.8 6.4-28.4-23.6-37.8-35.6-3.6-4.2-5.2-7.2-3.8-6.4 4 2.6 2.8 0-4.6-10.4-9.4-13-23.8-44-28.6-61.2-2.4-8.8-4.2-12.6-4.8-10-0.4 2.2-0.8-19-1-47 0-28 0.6-48.8 1.4-46 1 4 1.6 3.2 3.6-6 1.4-6 5.6-18.6 9.4-27.8s6.4-17.6 5.6-18.8c-0.6-1.2-0.2-1.4 1-0.6 1.4 0.8 3.6-1.4 5.6-5.2 5.4-10.8 16.8-25.6 31.8-41.8 9.2-10 7.4-8.6-5 4-10.4 10.6-16 15.6-12.6 11.2 6.8-8.6 36-37.6 33.8-33.4-2.4 4.2 0.2 2.8 13.2-6.8 17.6-12.8 45.4-26 68.8-32.2 17.4-4.6 23.6-5.2 51.8-5.2 28 0 34.4 0.6 51.4 5.2 37.2 9.8 67 26.8 95.2 54.2 76 73.4 85.2 190 22.2 275.4-10.8 14.6-33.4 36.8-45.8 45-4.4 3-7.4 6-7 7 0.6 0.8 0 2.2-1.2 3-1.6 0.8-1.8 0.6-1-0.8 2-3.4 0.4-3-7.6 1.8-8.8 5-9.6 7.2-1.2 2.8 3.4-1.8 6-2.6 6-2.2 0 2.2-11 6.6-13.8 5.6-1.6-0.6-2.2 0-1.4 1.4 1 1.4 0.2 1.8-2 0.8-2-0.6-3-0.4-2.4 0.6 0.8 1-0.8 2-3 2-2.4 0.2-10.4 2.6-17.6 5.4-26.4 10.2-66.4 15-94.8 11.2zM247.2 622.2c21-4.4 47.4-16 65.6-29 13.2-9.4 43.2-40 43.2-43.8 0-1.4-2 0.4-4.6 3.6-12.4 17.2-38.4 40.2-54.8 48.8-8.8 4.6-4.4 0.6 7.4-6.6 14.8-9.2 33.4-26.2 43.2-39.4 4-5.4 8-9.4 8.8-8.8 3.8 2.4 21.2-35.2 26.2-56.6 3.8-16.8 5.4-42.2 3.4-60.6-11.2-112.6-124.6-185.4-232.6-149.6-19.6 6.6-43.8 19-42 21.8 0.6 1 0 2.4-1.2 3.2-1.6 0.8-1.8 0.6-1-0.8s0.6-2.4-0.6-2.4c-3.6 0-34.4 30.6-43.4 43.2-10.6 14.8-23.2 41.2-27.8 57.8-4.4 16.8-6.2 55.2-3.2 74 12 73.8 66.8 131 140.2 146 19.4 4 51.8 3.6 73.2-0.8zM99.6 505c-5.2-1.8-10-4-10.6-5-0.6-1.2-2.2-2-3.2-2-1.2 0-1.4 1-0.6 2.4s-1.4 0.2-5-2.2c-7.8-5.6-18.4-19.6-17.2-22.8 0.6-1.4-0.4-6.4-1.8-11.4-2-6.2-3-7.6-3-4.2-0.2 2.6-0.6 4.4-1.2 3.8-1.8-1.8 3.2-30.2 6.8-38.8 2-4.4 6.6-11.6 10.2-16 5.4-6.6 5.2-6.4-2 1.2-4.8 5-7.6 7.2-6.4 5s5.4-7.2 9.6-11c4-3.8 6.8-5.8 6-4.4-2 3.2-2 3.2 11.6-3.6 16.6-8.4 33.8-8.4 50.4 0 13.6 6.8 13.6 6.8 11.6 3.6-0.8-1.4 2 0.6 6 4.4 4.2 3.8 8.4 8.8 9.6 11s-1.6 0-6.2-5l-8.6-9 7.2 8.8c4 5 8.2 12 9.6 15.6l2.4 6.6h63.2v-16c0-13.4 0.6-16.6 4-20 2.2-2.2 5-4 6.4-4 1.2 0 1.8-0.6 1.2-1.2-2.4-2.2-10 3.6-12.6 9.8-1.6 3.6-2.8 5-3 3.4 0-4 5.2-11.4 10-14s15.8 1 21.6 7.4c3.8 4 4.4 7 4.4 19.8v14.8h28l-0.2-27.4c0-18.6-0.6-26.2-2-23.6l-1.8 4 0.6-4c0.4-2.2 1.6-3.8 2.8-3.6 2.4 0.4 10-7.2 9-9.2-0.4-0.6 1-1.4 3-1.6 3-0.4 3-0.2-0.4 1.2-3.2 1.6-2.6 2 3.6 2 5.2 0.2 9 1.8 12.4 5.2 4.8 4.6 5 5.8 5 31v26h9.2c7.4 0 10.2 1 15 5.8 6.4 6.6 7.4 13 2.6 20.2l-3.2 5 4.2-4.8c2.4-2.6 4.2-3.8 4.2-2.8s-2.4 4-5.4 6.8c-2.8 2.6-4.6 3.6-3.6 2 1.4-2.2 0.8-2.4-2.2-1-2 1-41.6 2-88 2.4l-84.2 0.6-2.4 4.4c-2.2 4.4-2.2 4.2-1.2-0.6 0.8-3.4-0.2-2.6-3.2 3-2.4 4.4-5.6 9.6-7.4 11.6-1.6 1.8-2.6 4-2 4.6s3.2-2.2 5.6-6c2.4-4 4.8-7.2 5.2-7.2 3.4 0-10.6 17.2-17.6 22l-6.6 4.4 6-5.2c3.4-2.8 5.2-5.2 4.4-5.2-3 0-12.4 8.2-12.4 10.6 0 1.4-2.6 2.6-6 2.8-3.2 0.2-11.8 0.8-19 1.4-8.8 0.8-16 0.2-22.4-1.8zM133.4 470.6c9.8-6.4 13.6-23.4 8-34.6-3.6-7.4-14.8-14-23.4-14s-19.8 6.6-23.4 14c-3.4 6.8-3.2 19 0.2 25.8 7 13.2 25.4 17.4 38.6 8.8zM846.6 609.8c-66.6-6.4-123.6-56.4-140.6-122.6-5.4-21.6-5.4-54.6 0-76.4 4.8-19 19-48.6 28.8-60.2 7.8-8.8 9.4-12.8 3.8-8.4-2 1.4 1.4-2.6 7.4-8.8 10.4-11 13.6-13.6 11-9.4-2.2 3.6 0.8 2 10.4-5.4 13.2-10 42.6-23.6 60.6-27.6 33.8-7.8 74-3.2 105.8 12.4 8.4 4.2 16.2 7.6 17.6 7.6 1.2 0 3 0.8 4 1.8s0.4 1.2-1.4 0.2c-2.6-1.6-2.6-1.4-0.2 1.6 2.8 3.6 7.2 4.8 5.2 1.4-2-3.2 0.2-2.2 3.2 1.4 2.4 3 2.4 3.2-0.2 1.6s-2.6-1.4-0.2 1.6c3.2 4 7.2 4.6 5 1-2.4-4.4 23.2 21 27.8 27.4 2.4 3.4-2.8-1.2-11.4-10-12.2-12.4-13-13-4-3 6.6 7.2 15.4 18.4 19.8 25 8.2 12.4 20.8 41 21.2 48v4l1.6-4c1-2.2 1.6 15.8 1.6 40s-0.6 42.2-1.6 40c-1.4-3.4-1.6-3.6-1.6-0.4-0.2 2-3.2 11-6.6 20-3.6 9-6.6 18-6.8 20s-1.4 4.8-2.8 6c-2 2-2 1.4-0.2-2.6l2.4-5-4 5c-4.6 5.6-5.4 9-1.8 6.8 1.4-0.8 1.6-0.6 0.8 1-0.8 1.2-2.2 1.8-3 1.2-1-0.4-4.2 2.8-7.2 7.2-7.8 11-26.6 28-41 37-6.6 4-11.4 8-10.8 9s-0.6 1.2-2.4 0.4c-2.4-0.8-3-0.6-2 1 0.8 1.6 0.4 2-1.6 1.2-1.6-0.6-5.6 0.4-9 2-8.2 4.2-36.2 10.6-51.2 11.6-6.6 0.4-18.6 0.2-26.4-0.6zM907.4 570.4c21.2-7.8 35.6-17.4 51.4-34.6 22.2-24 33.2-52.6 33.2-86.8 0-21.4-3.6-38.2-12-55.4-7.8-16.4-20.4-33.6-21.6-29.6-0.6 1.6-2.6 5.4-4.6 8.4-4.2 5.8-4.8 8.6-1.8 6.6 3.2-2 2.2 0.2-1.4 3.2-3 2.4-3.2 2.4-1.6-0.2 1-1.6-2.6 1.6-8.2 7.2-5.4 5.6-14 12.8-18.8 15.8-5 3.2-9.4 6-9.8 6.4s0.6 2.2 2.4 4.2c1.8 2 5.6 8.8 8.4 15 6.6 14 7.4 33.4 2 47.4-1.8 5-3.6 10.6-3.8 12.4-0.2 2-1.2 4.2-2.2 5-0.8 1-0.8 0.2 0-1.4 1-1.6-2.4 1-7.2 6s-11 10.8-13.8 12.6c-4.6 3.2-4.6 3.4-0.4 1.2 2.6-1.2 8.4-5.4 13-9.4s6.6-5.2 4.4-2.6c-5.6 6.6-19.2 16.4-21.2 15-0.8-0.4-6.2 0.6-11.8 2.4-13.4 4.4-33.8 3-46-3.2-36.2-18-48.8-61.8-27.6-95.2 3.2-5.2 5.6-9.4 5.2-9.8-0.4-0.2-4.8-3.2-9.8-6.6-5.2-3.4-14.6-12-20.8-18.8-6.4-7-10.8-11.4-10-9.8 1 2 0.8 2.4-0.8 1.4-1.2-0.8-1.8-2.2-1.2-3.2s0-4.2-1.6-7.2l-2.6-5.2-5.4 7.2c-5.8 7.4-6.8 10.4-3 8 1.4-0.8 1.6-0.6 0.8 1-0.8 1.2-2.4 1.8-3.4 1-2.8-1.6-15.4 26.6-18.8 42.2-14.4 68.4 26 134.8 93.4 153 22.4 6.2 55 4.6 77-3.6zM877.2 486.2c11.2-5 17.4-14.2 18.4-27.4 0.8-8.8 0-12.2-4.4-19.8-3-5-6.4-9-7.4-9-1.2 0 0.2 2.8 3 6.2s5.2 7.2 5.2 8.4c0 1.4-1.8-0.4-3.8-3.8-2.2-3.6-4.8-7-6-7.8-1.2-0.6-1.8-2.2-1.2-3.2 1.8-2.8-8-5.8-18.8-5.8-23 0-37.8 22.6-29.4 45 6.8 17.6 26.6 25.2 44.4 17.2zM894 383.6c15.4-7.2 26.2-17.2 33.8-31.4l6.4-12-10.6-5.4c-19-9.6-31.8-13-52.8-14.2-24.4-1.4-43.4 2.2-64.6 12.4l-14.4 7 5.2 9.8c2.6 5.4 6 10.6 7.2 11.4 1.6 1 2 0.6 0.8-1.4-0.8-1.6 2.4 1 7.2 5.6 4.8 4.4 12 10 15.8 12.4s6 4.2 5 4.2c-3 0-10.8-5.6-19.4-13.8-4.2-3.8-7.6-6-7.6-5 0 4.8 19 18.4 33 23.4 14.8 5.2 40.4 3.8 55-3zM579.8 525c-0.2-0.6-0.4-2-0.6-3.4 0-1.2-1.4-2.6-3-3.2-1.8-0.6-2.2 0-1.4 1.8 0.8 1.6-0.4 0.6-2.6-2-2.4-2.6-4.2-5.6-4.2-7 0.2-1.2 1.6 0 3.2 2.8 1.8 3 2.4 3.4 1.6 1-0.8-2.2-1.6-7-1.6-10.6 0-4.4-0.4-5.6-1.6-4-1.4 2-1.8 1.8-1-0.4 0.4-1.6 1.6-3 2.6-3 1.2 0 7-4.4 13-9.8 10-9 10.2-9.2 1.4-2.4-12.8 10-12.2 7.8 0.8-3.2 5.8-4.6 9.8-7.4 8.8-6-2.8 4.6 1.8 2.4 9.8-4.8 4.4-4 6.8-6.6 5.6-6-3 1.6-143.2 1.6-150.4 0-4.2-1-4.6-0.6-2.2 1.2 2.6 2 2.6 2.2 0 1.4-1.6-0.4-2.8-1.8-2.6-3 0.6-2.2-5.4-8-8.4-8.2-1 0-2.2-1.6-2.4-3.6-0.4-3-0.2-3 1.2 0.4 1.6 3.4 2 3 2-2.6 0.2-3.6 1.2-8.4 2.2-10.6 1.2-2 1.6-3.8 1-3.8s-2.4 3-4 6.6c-1.6 3.4-2.8 4.8-3 3 0-1.8 2.4-6 5.2-9s4.4-4.4 3.6-2.8c-1.2 2.2-0.6 2.4 2.4 1 2-1 37.8-2.2 79.4-2.8l75.6-1-14-11.4c-13.8-11.6-17.8-13.8-15-9 0.8 1.2-1.8-0.8-5.8-4.4-4.2-3.8-7.4-7.8-7.4-8.6 0-1 2.4 0.8 5.6 4 3 3 3.6 3.6 1.6 1-5.4-6.4-5.6-21.6-0.4-26.2 2.2-1.8 3.2-2.2 2.4-0.8-1.8 2.8 0.6 3.2 4.8 0.4 2.4-1.6 2.4-2 0.2-2-1.6 0-2.4-0.4-1.8-1 1.6-1.6 18.2 6 21.4 9.8 3 3.6 7.2 4.4 5 0.8-2.4-4 59 46.8 65.4 53.8 3.2 3.8 5.8 8.8 5.6 11.2-0.2 3.6-0.4 3.4-1.8-1.4-2.4-7.8-5.4-10.8-35-34.8-14.2-11.6-27.6-22.4-29.4-24-2-1.6-3.6-2.4-3.6-1.8s14 12.6 31.2 26.4c17 14 32 27.6 33.2 30 4 9 0.4 14-25.4 35-13.8 11-25 20.8-25 21.4s1.6-0.2 3.6-1.8c1.8-1.6 13-10.8 24.8-20.4s22.4-19 23.6-20.8c1-1.8 2-2.4 2-1.2 0 1-3 4.8-6.4 8-10.6 10-50.6 42-49 39.4 3-4.8-1.2-2.6-12.4 6.8-13.8 11.6-16.2 13.8-12.2 11.6 1.6-1 7.2-5.2 12.6-9.6 5.2-4.2 9.4-7.4 9.4-6.8s-4.6 4.8-10.2 9.6c-9 7.4-11.4 8.6-19.6 8.4-8.8-0.2-9-0.2-2.2 1.4l7 1.4-6.4 0.4c-3.6 0-6.8-0.2-6.8-0.8zM839 260c5.6-1.4 5.6-1.6 1-1.8-10-0.4-34.6-8.4-48.6-15.8-18.4-9.4-18.2-9.4-16.4-6.4 1 1.8 0.8 2.2-0.8 1.2-1.2-0.8-1.8-2.2-1.2-3 0.4-1-2.6-4.2-6.8-7.2-11.4-7.8-30.4-28.2-39.2-41.8-33.8-52.8-33.8-121.6 0-174.4 8.8-13.6 30.8-37.2 40.4-43 3.6-2.4 6.2-5 5.6-5.8-0.6-1 0-2.4 1.2-3.2 1.6-1 1.8-0.6 0.8 1.2-0.8 1.4-0.8 2.2 0.2 1.6 1-0.4 9.4-4.6 18.8-9.2 21.2-10.4 35.8-14.2 59.4-15.8 23.2-1.4 44.2 1.8 67.4 10.4 10 3.8 18.8 6.2 20 5.6 1-0.6 1.2-0.2 0.6 1-0.8 1 2.4 4.2 7 7 4.8 2.8 13 8.8 18.2 13.4s10 8 10.6 7.6c1-1.2-12.6-12.6-24.6-20.6-10-6.4-11.6-9-2.4-3.6 10.4 6.2 30.4 23.4 38.8 33.6 4.4 5.4 6.8 9.2 5.4 8.2-3.8-2.2-2.8 0.4 2.6 7.6 6.2 8 20 37.8 22 47.2 1.2 5.4 1.8 6.2 2.8 3.4 0.8-2 1.6 12 1.8 31 0.6 32.2 0.2 35.8-4.6 52.6-2.8 10-8.8 24.6-13.2 32.6-4.2 8.2-7.4 15.4-7 16.2 1.6 2.4-17 24.2-27.8 33.2-5.4 4.4-9.2 6.8-8.2 5.4 0.8-1.2 1-2.4 0.6-2.4-1 0-21.8 13.8-23.4 15.4-1.6 1.8 8.6-3.8 14.6-7.8 3-2.2 5.4-3.4 5.4-2.6 0 2.6-18.6 12.6-21.6 11.6-2.2-1-2.6-0.6-1.4 1.4 1 1.8 0.8 2.2-0.8 1.2-1.2-0.8-8.2 1-15.4 3.8-7.2 3-20.2 6.6-28.6 8-15.8 2.8-63.8 5.4-53.2 3zM886 225.2c17.2-3.2 39.2-11.6 38.6-14.8-0.4-1.2 0.6-1.8 2-1.2 3.8 1.4 24.8-14.6 35-26.6 8.4-10 10.6-14.2 6-11.4-1.4 0.8-1.6 0.6-0.8-1 0.8-1.2 2.2-1.8 3.2-1.2 2.8 1.8 13.8-21.8 18.2-38.6 6.8-26.8 3.6-64.8-7.2-86.8-4.2-8.2-19.6-31.6-21-31.6-0.6 0-3.2 3.8-5.8 8.4-6.6 11.4-21 26.4-32.6 34-9.2 6-9.4 6.6-6.6 10.4 19.8 27.4 17.8 62.2-4.8 85.8-4 4.2-9.8 9-12.8 10.6-3.2 1.8-5 4-4.2 5.2s0.6 1.6-0.8 1c-1-0.8-7.6 0-14.4 1.8-15.6 4-27 2.6-43.4-5.4-24.4-11.8-37.8-34.4-36.2-61.8 1-15.2 7.2-32 14.4-37.8 2.6-2.2 1.4-3.6-8.8-10.6-12.2-8.2-26.2-22.6-31.2-32-2-4-3.8-5-6.4-4.2-3 1.2-3 1-0.6-2.6 1.4-2-0.2-0.6-3.6 3.2-15.8 17.4-26 45-27.6 74-4 73 53 133.8 127.4 135.6 5 0.2 15.8-1 24-2.4zM880.2 133.4c3.6-2.4 8.8-7.6 11.4-11.4 4-5.8 4.6-8.8 4-18.6-0.6-7.2-2.4-13.4-4.8-17-5-6.8-19.6-14.4-27.8-14.4-10.8 0-23.4 8-28.6 18-11.8 22.8 3.4 48 28.6 48 7.6 0 12.2-1.2 17.2-4.6zM880.2 37.2c21-4.8 41.4-21.2 50-39.8l3.8-8.4-15.8-7.6c-26.4-12.8-56.8-16-86.2-9-13.2 3.2-38 15-38 18 0 4.6 8.2 18.4 15.6 26.2 9.4 10 20.8 16.6 34.4 20.2 13.8 3.8 22 3.8 36.2 0.4zM201 212c-0.6-1-0.6-2 0.2-2s-0.2-1.8-2.2-4c-1.8-2-4.4-3.6-5.4-3.4-1.2 0.2-2.6-1-3-2.6-0.6-2-0.4-2.2 0.8-0.8 0.8 1.4 1.6-10.8 1.8-27 0-27 0.4-30.2 5.4-42 2.8-7.2 4.8-13.6 4.4-14.2-1.2-2 12.2-17.2 19.6-22.2 4.4-3 3.8-2-2 3.2-4.8 4-10.6 10.2-13 13.6-2.6 3.6 0.2 1.6 6.4-4.8 6.2-6.2 16.2-13.6 23-17l12-5.8 362.8-2-12.8-10.4c-12.8-10.6-16.4-12.8-13.8-8 1.2 2-4.4-2.2-12.2-9.4-3-2.8 3.4 0.8 8 4.6 2.2 1.8 1.4 0.2-1.8-3.2-3.2-3.6-6.6-6.2-7.8-6-1 0.2-2.4-1-2.8-2.6-0.6-2-0.4-2.2 0.8-0.6 1 1.4 1.6-0.6 1.6-5.4s-0.6-6.8-1.6-5.4c-1.2 1.8-1.6 1.8-1-0.2 0.4-1.6 1.6-2.6 2.6-2.6 2.8 0 9-6 8-7.8-2.4-4 16.2 2.4 23 7.8 8.2 6.6 11.2 7.8 8.8 3.8-1.8-2.8 48.2 37.4 58.8 47.2 3.4 3.2 6.4 7 6.4 8 0 1.2-1 0.6-2-1.2-1.2-1.8-14-13-28.6-24.8-14.4-11.8-28-22.8-29.8-24.4-2-1.6-3.6-2.6-3.6-2s13.6 12.2 30 25.6c30 24.6 33.8 29.2 31 38.2-1.2 3.2-0.8 4 1.2 2.6 2.2-1.2 2-0.6-0.2 2.6-3.2 4.6-59.6 51-57.2 47 3-4.8-2-2-10.8 6-8.8 7.8-6 7 3.8-1.4 2.6-2.2 4.2-3 3.4-1.6-0.6 1.2-5 5.2-9.6 9-4.6 3.6-7.6 5.4-6.6 3.8 1.2-2.2 0.8-2.6-1.8-1.6-2 0.8-4.2 1.4-4.8 1.4-0.8 0-0.2 0.8 1 1.6 1.6 1-0.2 1.6-4.4 1.6-4.6 0-6-0.6-4.4-1.8s1-1.4-2-0.8c-6.2 1.4-9.8-4-9.6-14.4 0.2-8 1.2-9.8 10.2-17.8 9-8.2 9.2-8.4 1.2-2.4-4.6 3.4-9.8 8.2-11.4 10.6s-3 3.4-3 2.2c0-2 5.8-7.8 18.8-18.8 3.2-2.8 5.2-3.8 4.4-2.4-2.6 4.6 1.8 2.4 10.8-5.6l9-7.8-173.8-0.2c-124.6 0-175.8 0.6-181.4 2.2-4.2 1.4-10.8 5-14.8 8.2-12 10-13.8 15.4-15 46.6-0.6 15.4-2 29.8-3 31.8-1.2 3-1 3.6 1.2 2.4 1.6-0.8 0.2 0.8-2.8 3.6s-7.2 5.2-9 5.2c-1.8-0.2-0.4-1.4 3.2-3 3.4-1.6 6.4-3.4 6.4-4s-1.8-0.2-3.8 1c-2.2 1-7 2-10.6 2.2-5.4 0-6 0.4-2.6 1.8 3.2 1.4 3.4 1.8 0.6 1.8-1.8 0.2-4-0.6-4.6-1.8zM596.8 122.6l3.8-4.6-339.6-1 172.8-0.6c95-0.2 172.4-0.2 172 0.2-0.4 0.2-3.4 2.6-6.8 5.4-5.2 4.4-5.6 4.4-2.2 0.6zM428.8 78.6l173.8-0.6-15.6-14.4 9.6 7.4c5.2 4.2 9.4 7.8 9.4 8.2s-79 0.6-175.4 0.4l-175.6-0.6 173.8-0.4z" />
<glyph unicode="&#xe921;" glyph-name="library" horiz-adv-x="1088" d="M1024 0v64h-64v384h64v64h-192v-64h64v-384h-192v384h64v64h-192v-64h64v-384h-192v384h64v64h-192v-64h64v-384h-192v384h64v64h-192v-64h64v-384h-64v-64h-64v-64h1088v64h-64zM512 960h64l512-320v-64h-1088v64l512 320z" />
<glyph unicode="&#xe922;" glyph-name="Lookups" d="M64 416v-352h640v384h115.2c128.2 0 123.6-0.4 134.4 13.6l5.4 7v278.8l-5.4 7c-11.4 14.8 30.2 13.6-454.4 13.6h-435.2v-352zM640 608v-96h-512v192h512v-96zM904.8 667.8c3.8-3 5.2-6 5.2-11.2 0-6.2-5.8-14.4-50.2-69.8-51-63.8-54-66.8-64.6-64-3.2 0.8-21.2 21.6-55 64-44.4 55.4-50.2 63.6-50.2 69.8 0 5.2 1.4 8.2 5.2 11.2 5.2 4.2 7.2 4.2 104.8 4.2s99.6 0 104.8-4.2zM640 288v-160h-512v320h512v-160zM192 352v-32h384v64h-384v-32zM192 224v-32h384v64h-384v-32z" />
<glyph unicode="&#xe923;" glyph-name="MasterBath" d="M462.848 742.4c-11.776-28.16-8.704-68.608 8.192-120.32 16.896-51.2 18.432-69.632 7.68-99.84-4.096-11.264-7.68-20.992-7.68-21.504 0-1.024 13.824-1.536 30.72-1.536 29.184 0 31.232 1.024 36.352 14.336 12.288 32.256 11.264 58.368-5.12 109.056-17.408 53.76-19.968 87.552-8.704 114.688 4.096 9.216 6.144 18.432 4.096 19.968-1.536 1.536-15.36 3.072-30.208 3.072-26.624 0-28.16-0.512-35.328-17.92zM587.776 746.496c-12.8-32.256-11.264-69.12 5.632-120.832 17.92-55.808 19.456-77.312 8.192-104.448-4.096-9.728-7.68-18.944-7.68-19.968s13.824-2.048 30.72-2.048c35.328 0 39.936 5.12 44.544 47.616 2.048 20.992-1.024 37.376-13.312 75.776-17.408 54.272-19.968 87.552-8.192 115.712 4.096 9.728 7.68 18.944 7.68 19.968s-13.824 2.048-30.72 2.048c-29.184 0-31.232-1.024-36.864-13.824zM710.656 746.496c-12.8-32.256-11.264-69.12 5.632-120.832 17.92-55.808 19.456-77.312 8.192-104.448-4.096-9.728-7.68-18.944-7.68-19.968s13.824-2.048 30.72-2.048c35.328 0 39.936 5.12 44.544 47.616 2.048 20.992-1.024 37.376-13.312 75.776-17.408 54.272-19.968 87.552-8.192 115.712 4.096 9.728 7.68 18.944 7.68 19.968s-13.824 2.048-30.72 2.048c-29.184 0-31.232-1.024-36.864-13.824zM260.608 740.352c-16.896-17.408-19.968-47.104-7.68-71.68 15.872-29.696 65.536-36.352 90.624-11.264 12.8 12.8 14.848 18.944 14.848 41.472s-2.048 28.672-14.848 41.472c-12.8 12.8-18.944 14.848-41.472 14.848s-28.672-2.048-41.472-14.848zM271.36 595.456c-28.16-18.944-36.864-40.96-33.792-83.456 1.536-19.456 4.096-40.96 6.144-47.104 3.072-11.264 2.048-11.264-44.544-12.8l-48.128-1.536v-112.64c0-111.104 0-113.152 13.312-138.24 7.68-15.36 21.504-31.744 34.816-40.96l22.016-15.36 570.368-2.56 22.528 11.776c12.8 6.656 30.208 22.016 38.4 33.792l15.36 22.016 3.072 244.736h-451.072l-2.56 11.776c-1.536 6.144-5.632 28.16-10.24 49.152-13.312 66.048-33.792 88.576-86.016 91.648-26.624 1.536-34.304 0-49.664-10.24z" />
<glyph unicode="&#xe924;" glyph-name="MasterBed" d="M426 833.8c-113-8-222.6-30-337-67.6l-24-8-0.6-115-0.4-115.2h-64v-468h59.2l5 36.6 4.8 36.4h886l4.8-36.4 5-36.6h59.2v468h-64l-0.4 115.4-0.6 115.4-38 11.6c-115.4 35.8-226 56.6-336 63.6-36.6 2.2-125 2.2-159-0.2zM622 771c86.6-8.8 173.2-25.6 254-49.6l23-6.8 0.6-93.2 0.4-93.4h-38v149.8l-18.4 6c-51.8 16.4-83.8 22-135.6 23.4-58.6 1.8-92.8-3.2-151.4-21.6l-26.6-8.2v-149.4h-36v149.6l-19.4 6.2c-51.4 16-86.6 22.2-135.6 23.6-56 1.6-95.2-4-154.4-22.6l-22.6-7v-149.8h-38l0.4 93.4 0.6 93.4 12 3.8c98.4 30.2 190.4 47.8 291 55.4 35 2.6 157.6 0.8 194-3zM395 642.4c11-2.2 23.8-5 28.6-6.2l8.4-2.4v-105.8h-210v105.6l18.2 4.4c33.2 8.2 50.2 9.8 93.8 9 29.4-0.6 46.6-1.8 61-4.6zM745.6 645c11.4-1.6 28.6-4.8 38.6-7.2l17.8-4.2v-105.6h-210l-0.2 9.6c0 5.2-0.4 29-0.4 52.8l-0.4 43.4 17 4.2c41.2 10 96.4 12.8 137.6 7zM964 331v-137h-904v274h904v-137zM481 415.6c-16-19-30.4-35.4-31.6-36.2-1.4-1-21.4 7.6-52.2 22.6-27.2 13.4-50 24-50.4 23.4-0.4-0.4 7.8-47.6 18.2-105.2 10.4-57.4 19-105.2 19-106.4s47-1.6 127.4-1.4l127.6 0.6 19.2 106c10.4 58.4 18.4 106.2 17.6 106.6s-23-10.2-49.6-23.4c-26.4-13.4-49-24.2-50-24.2s-15.6 16.2-32.4 36c-16.8 19.8-31.4 36-32.2 36s-14.6-15.6-30.6-34.4zM532.2 341.8c10.4-12.2 21.2-24.8 24-28.2l5-6 20.6 10.4c11.4 5.6 20.8 10 21.2 9.6 0.2-0.4-2-14-5.2-30.6-3-16.4-5.6-30.2-5.8-30.4 0-0.4-36.2-0.6-80.4-0.6h-80.6l-5.4 30.4c-3 16.8-5 30.8-4.6 31.2 0.2 0.4 9.8-4 21.2-9.6 17-8.6 21-10 22.6-7.6 7.6 10 45.8 53.6 47 53.6 0.8 0 10-10 20.4-22.2z" />
<glyph unicode="&#xe925;" glyph-name="MasterCloset" d="M36 924c-4-4-4-6.6-4-476s0-472 4-476c4-4 6.6-4 476-4s472 0 476 4c4 4 4 6.6 4 476s0 472-4 476c-4 4-6.6 4-476 4s-472 0-476-4zM480 800v-96h-416v192h416v-96zM960 832v-64h-58.8l9 7.6c16.6 14 17.8 15.6 17.8 24.6 0 7.2-1.2 9.2-9.4 17-22 20.6-50.2 35.4-81 42.8-15.2 3.6-23.6 4-101.6 4s-86.4-0.4-101.6-4c-30.8-7.4-59-22.2-80.8-42.8-8.4-7.8-9.6-9.8-9.6-17 0-9 1.2-10.6 17.8-24.6l9-7.6h-58.8v128h448v-64zM830 827.2c13.6-3.6 41.4-16.4 50-23 6.6-5.2 4.2-7.8-18.6-19-31.8-15.6-35.2-16.2-125.4-16.2s-93.6 0.6-125.4 16.2c-22.8 11.2-25.2 13.8-18.6 19 7.2 5.6 35.6 19.2 46 21.8 17.6 4.8 37.8 5.6 108 5 58-0.4 73.4-1.2 84-3.8zM736 720v-16h-224v32h224v-16zM960 656v-80h-32v60c0 57.4-0.2 60.2-4 64s-6.6 4-60 4c-53.4 0-56.2-0.2-60-4s-4-6.6-4-64v-60h-32v160h192v-80zM480 448v-224h-416v448h416v-224zM576 655.2c0-15.4-0.4-17-4.2-18.2-7-2.2-20.2-15.4-24-24-3.6-7.6-3.8-18.4-3.8-194.4 0-184 0-186.6 4-190.6 3.8-3.8 6.6-4 44-4s40.2 0.2 44 4c3.8 3.8 4 6.6 4 48v44h28c25.4 0 28.4 0.4 32 4 4 4 4 6.6 4 142.6 0 129.6-0.4 139-3.8 146.4-3.8 8.6-17 21.8-24 24-3.8 1.2-4.2 2.8-4.2 18.2v16.8h64v-480h-224v480h64v-16.8zM640 655.6v-16.6l-16-9.2-16 9.2v33h32v-16.4zM896 656v-16h-64v32h64v-16zM896 592v-16h-64v32h64v-16zM600 604c5.8-3.2 8-13.2 8-37.2v-22.8h-32v22.8c0 23.6 1.8 32.4 7.4 36.8 4 2.8 11.4 3.2 16.6 0.4zM664 604c6.6-3.4 8-13.2 8-53.2v-38.8h-32.2l0.6 42.8c0.6 38.8 1 43.2 4.4 47 4 4.4 13 5.6 19.2 2.2zM960 464v-80h-192v160h192v-80zM608 384v-128h-32v256h32v-128zM672 416v-64h-32v128h32v-64zM960 272v-80h-31.8l-0.6 42.6c-0.6 47.8-1.6 51.4-17.6 67.4-12.4 12.4-22.4 16.6-42 17.6-22.4 1-36-3.8-50-17.6-15.8-16-18-24.4-18-71v-39h-32v160h192v-80zM879.6 282c7.4-4.6 14.4-15 14.4-21.4 0-4.6-0.2-4.6-30-4.6s-30 0-30 4.6c0 6.4 7 16.8 14.4 21.4 8.6 5.2 22.6 5.2 31.2 0zM896 208v-16h-64v32h64v-16zM480 96v-96h-416v192h416v-96zM960 80v-80h-33l0.6 14.4c0.6 12.4-0.2 16.2-4.4 24.4l-4.8 9.6 4.8 9.2c5.8 10.8 6.6 30.4 1.6 42-4 9.8-14 20-23.8 24.6-7.2 3.4-13.6 3.8-61 3.8s-53.8-0.4-61-3.8c-9.8-4.6-19.8-14.8-23.8-24.6-5-11.6-4.2-31 1.6-42.4 4.8-9.6 4.8-9.6 1-16-5-8.6-7.6-23.2-5.8-33.2l1.4-8h-34.4l0.6 14.4c0.6 12.4-0.2 16.2-4.4 24.4l-4.8 9.6 4.8 9.2c5.8 10.8 6.6 30.4 1.6 42-4 9.8-14 20-23.8 24.6-7.2 3.4-13.6 3.8-60.6 3.8-58 0-61.4-0.6-74.2-12.6-14.8-14.2-19-39.4-9.4-58.2 4.8-9.6 4.8-9.6 1-16-5-8.6-7.6-23.2-5.8-33.2l1.4-8h-33.4v160h448v-80zM678 92.4c7.4-3.6 9.4-8.6 7-17.8-2.2-9.4-11-11-57.4-10.2-41.4 0.6-42 0.6-45.8 5.4-2 2.6-3.8 6.8-3.8 9.2 0 15 5.8 16.8 54 17 33.2 0 40-0.6 46-3.6zM885 93.2c7.4-3.2 10.4-9.6 8.2-18.4-2.4-9-10.8-10.8-53.2-10.8s-50.8 1.8-53.2 10.8c-2 8.6 0.8 15.2 7.8 18.2 9.2 4 80.8 4.2 90.4 0.2zM675.8 29.8c3.4-1.2 7.2-3.8 8.2-5.8 3.4-6.2 2.2-15.2-2.2-19.2-3.8-3.4-8.2-3.8-43.4-4.4-43.2-0.8-50.8 0-56.6 5.8-7.8 7.8-3.6 21.8 7.2 24.4 8.4 2 80.6 1.4 86.8-0.8zM883.8 29.8c3.4-1.2 7.2-3.8 8.2-5.8 3.4-6.2 2.2-15.2-2.2-19.2-3.8-3.4-8.2-3.8-43.4-4.4-43.2-0.8-50.8 0-56.6 5.8-7.8 7.8-3.6 21.8 7.2 24.4 8.4 2 80.6 1.4 86.8-0.8zM420 604c-4-4-4-6.6-4-156s0-152 4-156c2.6-2.6 6.6-4 12-4s9.4 1.4 12 4c4 4 4 6.6 4 156s0 152-4 156c-2.6 2.6-6.6 4-12 4s-9.4-1.4-12-4zM820 476c-2.6-2.6-4-6.6-4-12s1.4-9.4 4-12c3.8-3.8 6.6-4 44-4s40.2 0.2 44 4c2.6 2.6 4 6.6 4 12s-1.4 9.4-4 12c-3.8 3.8-6.6 4-44 4s-40.2-0.2-44-4z" />
<glyph unicode="&#xe926;" glyph-name="Options" horiz-adv-x="1014" d="M346 958.2c-68.2-12.8-116-69.8-116-138.2 0-75.6 57-135.6 132-139.4 27.4-1.4 45.2 2.4 69.8 14.6 52.4 25.8 83.6 83.4 76.4 140.8-4.2 33.2-16.6 58.2-40.2 82-26.6 26.6-56.2 39.6-93 41-11 0.4-24 0-29-0.8zM392.4 931.8c32-6.6 64.2-31.2 78.4-60 23-46.8 14.6-97.2-22.6-133.8-21.6-21.4-48.2-32-79.2-32s-58.8 11.6-81.2 34.2c-22 22.2-32.6 49-32.2 81.8 0.2 42.4 24.6 80.8 63.2 99.8 23.4 11.6 49.2 15 73.6 10zM324 821.8v-68.4l33.6 1c30.6 1 34.8 1.4 44.8 6 15.4 7.2 20.4 14.8 21.2 32.6 0.8 17.4-3.4 25.4-15.8 30.4l-8.2 3.2 5.8 2.4c7.8 3.4 11.8 8.6 14.4 18.6 3.2 11.2 1 21.4-6.2 29.6-9 10.2-20.4 12.8-58 12.8h-31.6v-68.2zM377.8 865.8c9.8-2.2 14-6.4 14-13.8 0-8.8-4.4-12.2-19.4-14.4-19.6-3.2-20.4-2.6-20.4 14 0 7.6 0.6 14.4 1.4 15 1.8 2 14.2 1.6 24.4-0.8zM387.2 810.2c10-6.2 10.2-19.4 0.2-26.8-4.2-3.2-8.6-4.2-19.8-4.2l-14.6-0.2-0.6 17.6-0.6 17.4h14.6c10.8 0 16.2-1 20.8-3.8zM643.6 958c-30-5.4-53.6-17.8-75.6-40-25.8-25.6-38.8-54-41.4-90-2.8-39.4 15.4-84 45.2-111.6 12.4-11.2 34.6-24 51.4-29.6 16.2-5.2 20.2-5.8 43.8-5.6 22.6 0 28.2 0.8 42 5.4 56.4 18.6 93.4 66.8 96.4 125.4 3.2 67.6-38.6 125.6-103.2 143-13.8 3.8-45.8 5.4-58.6 3zM693 931c21.4-5.4 36.8-14.4 53-30.8 24-24.2 34-47.8 34-80.6 0-31.4-11.2-58.2-33.2-80.4-44.6-44.6-115.8-44.8-160-0.4-17 17.2-25.6 31.6-30.8 52.4-10.4 40.4 0.8 80.4 30.8 109.8 28.2 27.8 69.2 39.4 106.2 30zM650.2 887.6c-27-10.4-42-42.8-36.6-79.2 4.4-27.8 18.4-47 38.8-52.4 11.4-3.2 35.6-2.6 48 1l10.6 3-0.6 11.8-0.8 11.8-9.8-2.8c-21.6-6.4-40.4-3.2-49.4 8.2-8 10.2-10.8 36.6-5.4 54.2 6.8 22.8 26 30.6 51.2 20.8 5.6-2.4 10.6-3.8 10.8-3.6 0.2 0.4 2 4.6 3.8 9.6 2 5 4 10 4.6 11.4s-4.2 3.8-12.4 6.4c-17.6 5.4-38.2 5.4-52.8-0.2zM204.8 675.2c-68.2-15.6-113.6-75-110.2-144.2 2.6-50.8 30.8-94.4 75.8-117.4 40-20.4 83.8-20.4 125.6-0.2 15.8 7.6 21.6 11.8 36.2 26.4s18.8 20.4 26.4 36.2c20.2 41.8 20.4 82.4 0.4 123-17.6 36.2-46.2 60.8-85 73.2-16.8 5.4-52 7-69.2 3zM258.4 649.8c20.2-4.2 39.2-15 55.6-31.6 17.4-17.6 24.6-29.6 30-51.4 10.2-40-0.2-78.8-29-108-25.2-25.4-53.4-36.4-88-34.2-31.2 1.8-55 13.2-76.8 36.6-44.8 47.8-39.4 123.2 11.6 165.4 10.8 8.8 29.6 18.6 43.4 22.4 12.2 3.2 39.2 3.8 53.2 0.8zM215 615.6c-9.4-26.2-47-134-47-134.8 0-0.6 7-0.8 15.4-0.4l15.4 0.6 5 16 5.2 16h49.2l5-16.4 5-16.6h15c10.6 0 14.8 0.8 14.6 2.6 0 1.2-10.6 32.2-23.6 68.4l-23.4 66-17.4 0.6c-12.8 0.4-17.8-0.2-18.4-2zM242 567c4.4-14 8-26.2 8-27 0-1-7.6-2-17-2.4s-17-0.4-17 0c0 2.4 16.8 56.2 17.4 55.8 0.4-0.6 4.2-12.4 8.6-26.4zM406.6 674c-3.6-2.2-6.6-4.6-6.6-5.2 0-0.8 11-19.2 24.2-41 25.8-42.2 24.4-40.8 34.6-33.2 3.6 2.8 2.8 4.6-20.6 43.2-13.6 22-24.6 40.2-24.8 40.2s-3.4-1.8-6.8-4zM777 675.2c-27.4-6.2-50-18.8-69.6-38.6-13.8-14.2-19.6-22.6-28.4-41.2-17.8-38-17-79.2 2.4-119.4 7.6-15.8 11.8-21.6 26.4-36.2s20.4-18.8 36.2-26.4c11.8-5.8 25.4-10.4 36-12.6 68-13.6 137 27.2 159.4 94.2 4.6 14 5.4 19.4 5.4 42 0.2 21.8-0.6 28.4-4.4 41-14 45-49 80.2-93.4 94-17.8 5.6-52.6 7.2-70 3.2zM833.4 649.2c31.2-8.2 56.6-27.8 72-55 24.4-43 18-97-15.6-133-21.8-23.4-45.6-34.8-76.8-36.6-34.6-2-62.4 8.6-87 33.4-29.8 29.8-40.4 68.2-30 108.8 5.6 21.8 12.6 33.8 30 51.4 16 16.2 33 26.2 52.6 31 14 3.4 42 3.4 54.8 0zM764 538v-68h23.6c37.8 0 57.6 5.4 71.6 19.4 14.4 14.4 21.2 39.6 16.8 64-3 17.2-7.8 26.2-19.2 36.4-14.4 12.6-28.6 16.2-64 16.2h-28.8v-68zM825.4 579.8c15.4-5.8 24-24.4 22-47.2-2.4-25.2-17-38.6-41.8-38.6h-11.6v88h12.8c7.2 0 15.4-1 18.6-2.2zM619.2 669.4c-1.6-2.4-11.6-18.8-22.4-36.4-10.6-17.6-20.6-34-22.2-36.2-2.6-4-2.2-4.6 4.6-8.6 4-2.4 7.6-4 8-3.8 1.2 1.2 48.8 79.6 48.8 80.4 0 0.4-3.2 2.6-7 5l-7 4-2.8-4.4zM501.4 563c-53.2-19.6-57.8-93.4-7.4-119 34.2-17.4 76.2-1.2 89.8 34.8 16.2 43.2-15.2 87.6-61.4 87-7.4 0-16.8-1.4-21-2.8zM492.6 427.2c-34-15.8-64.6-44.4-76.4-71.4-10.6-23.8-20.4-71.8-23.4-113.8-1.8-23-1.6-26.6 1.4-34 6.4-16 33-17.6 42.8-2.6 2.2 3.2 4.4 17 7 41.2 2 20 5.4 43.6 7.4 52.4l3.6 16 1.4-45c1-24.8 2.2-105.8 3-180l1.6-135 4.4-6.2c4.6-6.4 17-12.8 25-12.8 9.2 0 21.2 8 25.4 16.8 4 8.2 4.2 11.6 4.2 114.8 0 69.6 0.6 106.4 2 106.4s2-37 2-107c0-104.2 0.2-107.4 4.2-115.2 4.2-8.6 16-15.6 25.6-15.8 8.8 0 21.2 7.6 25.8 15.8 4.4 7.8 4.4 8 4.4 131.4 0 103.8 0.6 125.4 3 133.6 2.2 7.4 3 21.2 3.2 55 0.2 42.2 0.4 44.6 3 35.2 3.4-12.8 8.4-46 10.6-73.4 1.2-14.2 3-23.4 5.4-27.4 3.6-6.2 15.2-12.2 23-12.2 7 0 16 6.6 20 14.4 3.6 7 3.8 9.4 1.8 31-8.6 93.2-24.2 134.6-61.8 163.4-14.4 11-36.8 24.4-45.6 27.4-6.8 2.2-7.4 2-15.6-6.2l-8.4-8.2-7 8c-3.8 4.6-8.2 8.2-9.8 8.2s-7.4-2.2-13.2-4.8zM531.8 358.6l7.4-49.6-7-10.4c-4-5.8-7.8-10.4-8.6-10.6-0.6 0-4.6 4.6-8.8 10.2l-7.4 10.2 7.8 52c4.2 28.6 8 51 8.4 49.8s4-24.4 8.2-51.6z" />
<glyph unicode="&#xe927;" glyph-name="Payments" d="M313.6 912.2c-15-4.8-23-10-34.4-22.2-11.8-12.6-18.8-27.8-20.2-43.2-1.2-11.6-0.8-12.8 20.6-61.6l22-50-4.8-3.6c-6.8-5.4-18.6-30.8-20.2-43l-1.2-10.6h369.2l-1.2 8.8c-2.2 16-9.4 31.2-19.2 41-5 5-10.8 10.2-12.6 11.2-3 1.8-1.6 6.6 15 46 17.4 41.6 18.4 44.8 18.2 58-0.2 37.2-32 69.4-71.4 72.4-17 1.2-32-2.2-48.4-11.6-12.4-7-17.4-7.2-25.4-1.4-12.8 9-27.6 13.6-45 13.6-18.4 0-30.8-3.4-44.8-12.2-11.4-7.2-15.8-7.2-28.6 0-21.6 12.2-45.8 15.2-67.6 8.4zM564 641.2c0-0.6 5.4-8.4 12-17.6 23.6-33 41.6-72.4 45.2-99.2 1.6-12-2.4-20.8-11.8-26.4-7.6-4.8-13.6-5-21-1.2-9 4.6-12.4 10-14.6 23.2-5.2 33-28 71.4-64.6 109.6l-10 10.4h-36.2l-36-0.2-10.8-15.4c-39-55.2-51.4-73.2-71.6-104.4-12.4-19.2-25.2-36.6-28.2-38.4-14.6-9.4-36.4 2.8-36.4 20.6 0 6.4 5.8 16.2 42.6 71.2 23.2 35 42.6 64.2 43 65.2 0.4 0.8-18.4 1.4-41.8 1.4h-42.4l-19-10.2c-22.6-12-46.4-27.4-64.4-41.6-17.4-14-49.8-45.8-64-63.2-63.2-77.6-97-177.4-93.4-277 2.8-76.6 21.6-127.2 63.8-171.2 54.2-56.4 141.4-85.2 280.6-92.8 108.8-5.8 218.8 1 294.6 18.4l18.4 4.2v6.4c0 10.8 5.6 25.6 13.6 36.2l7.8 10.2-6.6 8.8c-7.6 9.8-14.8 30.4-14.8 41.8s7.2 31.8 14.6 42l6.6 9-7.6 10c-18.8 24.6-18.2 61.6 1.4 84.6l7.2 8.2-7 9.2c-13.4 17.4-17 44.6-9 66 5.8 15.6 22.2 32.8 38.2 40.2l12.6 5.8 108.8 1.2-6 16.4c-9.6 26-29 64.6-43.4 86.4-15.8 24-66 75.6-98.4 101-24 19-51.8 37.8-68.4 46.2-11.4 5.8-11.8 5.8-47.6 5.8-19.8 0-36-0.4-36-0.8zM500.4 459.6l0.6-10.6 10-1.2c14.2-1.8 31.6-7 48.4-14.8 25-11.6 24.4-9.6 10-29.4l-12.4-17-10 5.6c-13 7.6-27.8 13-39.6 14.8l-9.4 1.4v-38.2c0-36.6 0.2-38.2 3.8-38.2 2.2 0 11.4-2.4 20.6-5.2 47.2-14.8 68-37.6 68-74.8 0-21.8-5.8-35.6-21.2-51.2-16.4-16.2-30.8-22.8-61.6-27.8l-7.6-1.2v-27.8h-22v14c0 12.8-0.4 14-4.4 14.8-33.6 6.8-58.6 17.2-80 33.2l-11.4 8.4 13.2 15.8c7.4 8.8 14 15.8 15 15.8s6-3.2 11.2-7.2c11.4-8.8 38.6-22 49-23.8l7.4-1.4v77.6l-13.8 3.4c-31.8 8.2-57.4 26-66.4 46-4 8.6-4.8 13.6-4.8 29.4 0.2 16.6 0.8 20.4 5.8 30.6 11.2 23.2 37.6 41.8 65.6 46.2l13.6 2v21.2h21.8l0.6-10.4zM462 406.8c-10.4-3.2-14-5.8-18.4-12.8-7-11.4-5.6-30.2 2.8-39.4 3.6-4 16.2-10.2 27.2-13.6l4.4-1.2v35c0 39.6 1 37.6-16 32zM500 251c0-42-1.2-39.6 17.6-34 20.6 6.2 31 21.8 26.4 39.2-3 11-9.2 16.8-27.2 25-8.2 3.8-15.4 6.8-16 6.8-0.4 0-0.8-16.6-0.8-37zM757 343.2c-20.6-9-24.6-35-8-51.2l7.2-7 104-0.6c103.2-0.4 104.2-0.4 111 3.8 8.4 5 14.8 17 14.8 27 0 8.6-6.2 20.2-13.6 25.8-5.2 3.8-8.8 4-107.4 4.4-81.8 0.4-103.2 0-108-2.2zM755 241.2c-3.4-1.4-8.6-5.6-11.6-9-14.4-17.2-5.2-44.4 16.8-50.2 5-1.4 41.4-2 104.2-1.6 107.2 0.6 104.2 0.2 114 14 3.6 5 4.6 9.2 4.6 18 0 12.6-3.8 19.4-15 27.2l-6.6 4.4h-100.2c-78.8-0.2-101.6-0.8-106.2-2.8zM754.4 138.6c-23.4-11.6-23.6-44.4-0.4-56.2l9-4.6 200.4 1.2 7.4 5.8c18.2 13.8 17.4 38-1.4 52-5.6 4.2-7.8 4.2-107 4.6-90.8 0.6-102 0.2-108-2.8zM754 37.6c-17.8-9-22.8-31.2-11-46.8 10-13.2 8-13 120-12.4 98.2 0.6 100.8 0.8 106.2 4.8 10.4 7.6 13.8 14.2 13.8 26.4 0 14-5.6 23-17.8 28.6-7.6 3.4-15 3.8-105.2 3.8-96.8 0-97.2 0-106-4.4z" />
<glyph unicode="&#xe928;" glyph-name="Personal-Data" d="M492.13 803.718c-0.488-0.366-0.853-9.143-0.853-19.505v-18.651h226.743c248.076 0 231.619 0.488 238.080-7.192l3.291-4.023v-624.884l-3.291-4.023c-6.339-7.436-2.072-7.192-108.251-7.192h-96.914v-39.010h97.402c61.074 0 99.718 0.488 103.863 1.219 9.874 1.95 21.090 7.68 28.648 14.872 7.924 7.558 12.069 14.019 15.238 24.259 2.194 7.192 2.316 17.31 2.316 322.316s-0.122 315.124-2.316 322.316c-3.17 10.362-7.436 17.067-15.726 24.625-8.29 7.68-17.554 12.556-27.55 14.385-8.046 1.463-459.215 1.95-460.678 0.488zM316.343 797.745c-1.95-0.244-8.046-1.097-13.41-1.829-21.090-2.804-44.373-10.118-65.219-20.602-84.48-42.301-131.413-136.168-114.59-229.181 12.19-67.048 58.027-126.659 119.589-155.429l12.922-5.973-19.627-6.461c-107.52-35.718-188.343-129.707-207.238-241.128-2.072-12.556-4.389-35.962-4.389-45.349v-6.461h42.301l0.853 14.75c4.754 83.627 48.396 160.061 118.37 206.994 68.023 45.592 153.966 57.173 231.863 31.208 68.389-22.796 124.465-71.924 155.794-136.533 16.091-33.036 24.137-64.366 26.819-103.863l0.853-12.556h42.667l-0.731 12.556c-4.023 61.684-20.114 110.933-52.053 158.72-38.522 57.783-94.964 100.45-161.524 122.392l-17.31 5.73 12.678 5.851c12.312 5.73 32.427 18.164 42.545 26.21 9.996 7.924 29.257 27.916 37.79 39.253 41.935 55.589 54.004 128.488 32.183 195.048-5.12 15.848-19.017 43.276-28.891 57.173-10.606 14.994-35.474 39.863-50.225 50.225-26.819 19.017-57.661 31.573-90.21 37.059-10.24 1.829-44.739 3.17-51.81 2.194zM365.592 752.762c70.339-13.653 123.977-67.901 137.509-138.971 2.804-14.994 2.804-43.642 0-59.124-9.874-53.394-44.373-99.596-92.404-123.733-19.505-9.874-40.716-15.726-62.903-17.432-52.541-4.023-101.425 14.629-137.752 52.541-23.528 24.625-38.4 53.638-44.983 87.406-3.291 17.067-3.048 47.543 0.488 64.244 15.848 73.63 72.777 126.415 147.749 136.899 11.215 1.585 40.229 0.488 52.297-1.829zM583.192 674.987c-0.244-0.853-0.366-10.85-0.244-22.187l0.366-20.724 302.933-0.61v45.105h-151.162c-122.149 0-151.406-0.244-151.893-1.585zM582.705 515.657v-21.943h303.543v43.886h-303.543v-21.943zM664.015 390.461c-0.488-0.366-0.853-10.606-0.853-22.552v-21.699h223.086l-0.244 22.309-0.366 22.187-110.446 0.366c-60.709 0.122-110.811-0.122-111.177-0.61z" />
<glyph unicode="&#xe929;" glyph-name="Phases" d="M467 916.8c-85.2-8.4-169-41.2-238.6-93.2-25-18.6-73.4-67-92-92-46.2-61.8-75-128.2-88.8-205-4-22.6-4.6-31.8-4.6-78.6 0-46.4 0.6-56.2 4.6-78.6 8.6-47.6 22.2-89 42.6-130 23.4-46.8 48-81.2 84.8-119.2 40-41.2 76.6-67.8 129.2-94 50.2-25 103.2-40.4 159.8-46.4 32.2-3.4 96.4-1.4 127 4 75 13.2 142.8 42.6 204.8 88.6 24.6 18.4 73.4 67.2 91.8 91.8 46.2 62.2 75 128.8 88.8 205.2 4 22.4 4.6 32 4.6 78.6 0 47-0.6 56-4.8 79-17.6 97.4-59.4 179-127 248.8-70.4 72.4-158.2 118.8-258.2 136.4-18.8 3.4-33.8 4.4-70 4.8-25.2 0.4-49.6 0.2-54-0.2zM581.6 865.8c94-15.4 181.6-63.6 246-135.8 54.2-60.8 88.2-131 102.6-213 6.6-37.4 6.6-100.6 0-137.6-16-91-55-166.4-119-230.6-70.6-70.4-161-113.4-257.8-122.4-13-1.2-16.8-1-15 0.6 1.4 1.2 9.8 8.2 18.6 15.4 19.2 15.8 60 57.2 75.2 76.6 146 184.4 149.6 458 8.8 646-27.8 37-58.2 68.4-92.4 95.6-7 5.4-12.6 10-12.6 10.2 0 1.2 22.2-1.2 45.6-5z" />
<glyph unicode="&#xe92a;" glyph-name="Print" d="M254.862 736.996v-95.573h-46.421c-77.369-0.455-109.227-12.743-131.527-51.428l-10.923-19.115v-309.476l12.743-21.39c8.192-14.108 20.025-25.941 34.133-34.133 19.57-11.833 25.486-12.743 81.465-14.108l60.53-1.82v-126.521h514.276v126.521l60.53 1.82c55.979 1.365 61.895 2.276 81.465 14.108 14.108 8.192 25.941 20.025 34.133 34.133l12.743 21.39v154.738c0 169.301 0.455 166.571-28.217 195.243-21.39 21.845-39.14 26.852-102.4 29.127l-58.254 1.82v190.236h-514.276v-95.573zM705.422 705.138v-63.716h-386.844v127.431h386.844v-63.716zM885.191 566.329l11.378-10.923v-278.528l-11.378-10.923c-10.468-10.923-13.653-11.378-63.716-11.378h-52.338v127.431h-514.276v-127.431h-52.338c-50.062 0-53.248 0.455-63.716 11.378l-11.378 10.923v278.528l11.378 10.923 10.923 11.378h724.537l10.923-11.378zM704.512 224.085l0.91-96.939h-386.844v94.663c0 52.338 1.365 96.484 3.186 97.849 1.82 1.82 88.292 2.731 192.057 2.276l189.326-1.365 1.365-96.484z" />
<glyph unicode="&#xe92b;" glyph-name="Projects" d="M419.612 954.539c-3.186-3.186-5.461-17.749-5.461-34.133v-28.672h-40.050c-25.031 0-41.87-1.82-45.511-5.461s-5.461-20.48-5.461-45.511v-40.050h-25.486c-43.691 0-42.78 2.276-42.78-86.471v-77.369h-77.369c-71.452 0-77.369-0.455-81.92-8.647-3.186-5.916-4.551-118.784-4.551-334.507v-325.86h-20.025c-16.384 0-20.935-1.82-23.211-9.102-7.737-23.666-27.307-22.756 464.213-22.756s471.95-0.91 464.213 22.756c-2.276 7.282-6.827 9.102-23.211 9.102h-20.025v454.656c0 407.324-0.91 455.566-7.282 461.938-5.916 6.372-28.217 7.282-171.577 7.282-90.567 0-167.026-1.82-170.212-3.641-3.641-2.276-5.916-19.115-6.827-45.966l-1.365-42.78-34.133-0.91v39.595c0 51.883-1.82 53.703-55.068 53.703h-40.505v31.403c0 24.576-1.82 31.858-7.282 34.133-10.012 3.641-12.743 3.641-19.115-2.731zM505.173 827.108v-28.672l-147.911 1.82-1.365 27.307-1.365 27.762h150.642v-28.217zM896.569 411.591v-444.188l-125.156 2.731-1.365 237.113c-0.91 198.884-1.82 238.478-7.282 243.029-8.192 6.372-25.486-1.365-25.486-11.378 0-5.006-5.461-6.827-18.204-6.827s-18.204 1.82-18.204 6.827c0 10.012-17.294 17.749-25.486 10.923-3.641-2.731-6.372-8.192-6.372-11.378 0-5.006-7.282-6.372-29.582-6.372h-29.582v423.253h286.72v-443.733zM577.991 598.187v-166.116h-131.982v54.613h26.852c33.678 0 50.517 10.468 41.87 26.396-4.551 8.647-9.102 10.012-37.319 10.012h-31.858l1.365 28.672 1.365 28.217 30.492 1.365c34.133 1.365 44.146 7.737 35.499 23.211-4.096 8.192-9.102 9.557-34.588 9.557-27.307 0-29.582 0.91-33.678 11.378l-4.551 11.378h-154.738v127.431h291.271v-166.116zM414.151 286.436v-319.033l-79.644 2.731-1.365 40.505c-0.91 22.756-3.641 43.691-6.372 46.876-6.827 8.192-105.131 8.192-111.957 0-2.731-3.186-5.461-24.121-6.372-46.876l-1.365-40.505-79.644-2.731v637.611h286.72v-318.578zM736.37 183.125l-1.365-212.992h-286.72l-1.365 212.992-0.91 212.537h291.271l-0.91-212.537zM348.16 696.036c-6.372-20.48 2.731-22.756 84.651-22.756 72.818 0 76.914 0.455 81.465 9.557 10.923 19.57 0.91 22.3-84.651 22.3-75.093 0-78.734-0.455-81.465-9.102zM510.635 353.792c-4.096-4.096-5.461-48.242-5.461-170.212 0-143.815 0.91-166.116 7.282-172.032 8.647-9.102 13.198-9.102 21.845 0 6.372 5.916 7.282 28.217 7.282 172.032 0 169.756-0.455 175.673-18.204 175.673-4.096 0-9.557-2.276-12.743-5.461zM581.177 356.068c-1.82-1.365-3.186-80.1-3.186-174.763 0-151.552 0.91-172.032 7.282-174.308 3.641-1.365 10.923-0.455 15.929 1.82 8.192 4.551 8.647 11.378 8.647 170.667 0 91.022-1.365 168.391-2.731 172.487-2.731 7.282-20.48 10.012-25.941 4.096zM649.444 356.523c-1.82-1.82-3.186-79.644-3.186-172.487 0-149.276 0.91-170.212 7.282-175.673 5.006-4.096 9.102-4.551 14.564-0.91 6.827 4.096 7.737 20.935 7.737 177.038v172.487l-11.378 1.365c-6.372 0.91-13.198 0-15.019-1.82z" />
<glyph unicode="&#xe92c;" glyph-name="ReportCategories" d="M348.402 923.645v-30.296h-90.888v-60.592h-133.302v-878.58h624.095v181.775h66.651v103.006h72.71v639.849l-76.346 75.134h-462.921v-30.296zM748.308 876.989v-40.596l-58.168 56.956h-152.691c-148.45 0-152.691 0.606-152.691 12.118 0 12.118 4.241 12.118 181.775 12.118h181.775v-40.596zM633.183 807.915v-49.079l-40.596 36.961-41.202 36.961h-128.454c-124.819 0-129.060 0.606-129.060 12.118 0 12.118 4.241 12.118 169.657 12.118h169.657v-49.079zM851.314 535.858v-266.604h-36.355v487.157l-44.838 46.050h81.193v-266.604zM493.822 693.396v-103.006h218.13v-599.858h-551.385v805.87h333.254v-103.006zM784.663 429.822v-257.515h-36.355v462.921l-50.897 52.109h87.252v-257.515zM251.456 423.763v-33.325h363.55v66.651h-363.55v-33.325zM251.456 290.462v-33.325h363.55v66.651h-363.55v-33.325zM251.456 148.071v-30.296h363.55v60.592h-363.55v-30.296z" />
<glyph unicode="&#xe92d;" glyph-name="ReportControls" d="M336.4 723c-26.2-1-26.8-1-31.6-6.6-5.2-6-6.6-18.4-2.8-25.6 3.6-6.4 12.8-9.8 27-9.8h13v-512h-13c-14.2 0-23.4-3.4-27-9.8-3.8-7.2-2.4-19.6 2.8-25.6 4.8-5.6 5.4-5.6 31.6-6.6 14.6-0.6 38.6-0.6 53.2 0 26.2 1 26.8 1 31.6 6.6 7.4 8.6 6.6 20-2 28.6-6.4 6.4-7.6 6.8-21 6.8h-14.2v512h14.2c13.4 0 14.6 0.4 21 6.8 8.6 8.6 9.4 20 2 28.6-4.8 5.6-5.4 5.6-31.6 6.6-14.6 0.6-38.6 0.6-53.2 0zM12.6 636c-13.2-5.8-12.6 5.8-12.6-211.4 0-191.4 0.2-196.8 4-203 2.4-4.2 6.4-7.2 11.4-8.6 5.4-1.6 47.4-2 139.2-1.6l131.8 0.6 5.8 6.6c10 11.2 7.2 26.6-6.2 33.4-5 2.6-23.2 3-125 3h-119v340l244.4 1 5.8 6.6c10.4 11.6 6.8 27.6-7.4 33.6-9.8 4.2-262.8 4-272.2-0.2zM438.6 635.8c-5.8-3-12.6-13-12.6-18.8 0-1.4 1.4-5.4 3.2-9 6.6-13.8-12.6-13 284.6-13h268.2v-340h-268.2c-297.2 0-278 0.8-284.6-13-1.8-3.6-3.2-7.6-3.2-9s1.4-5.4 3.2-9c6.6-13.8-13.8-13 295.6-13 236.8 0 280.4 0.4 286.2 2.8 13.8 5.8 13-6.4 13 211.2s0.8 205.4-13 211.2c-5.8 2.4-49.2 2.8-286.4 2.8-249.8 0-280.2-0.4-286-3.2zM120.8 509.8c-13-6.4-15.4-23-5-33.6 6.2-6.2 6.4-6.2 31.2-7l24.8-0.6 1.2-143.2 4.8-5.2c9-9.6 26.2-8.6 33.2 2 2.6 4 3 15 3 75.8v71h22c31.4 0 42 5.6 42 22 0 8.4-4 15-12 19-8.6 4.4-136 4.4-145.2-0.2z" />
<glyph unicode="&#xe92e;" glyph-name="Reports" d="M104 448v-512h816v761l-263 263h-553v-512zM598.4 771.2l0.6-108.8 6.2-7.8c3.2-4.2 10-9.6 14.8-12 8.8-4.6 9-4.6 113.4-4.6h104.6v-622h-652v864h412l0.4-108.8zM729 770l50-50h-101v50c0 27.6 0.2 50 0.6 50 0.2 0 23-22.4 50.4-50zM282 756v-28h274v56h-274v-28zM282 640v-28h274v56h-274v-28zM644 524v-28h29l-112-112-90 90-98.6-98.6c-54-54-98.4-99.4-98.4-100.4 0-1.2 8.6-10.6 19-21l19-19 160 160 44.4-44.6 44.6-44.4 151 151v-29.2l55 1.2 0.6 61.6 0.4 61.4h-124v-28zM282 140v-28h460v56h-460v-28z" />
<glyph unicode="&#xe92f;" glyph-name="Rooms" d="M172.8 931.2c-3.6-3.6-4.8-32-4.8-104v-98.8l-12-6.4c-6.4-3.2-13.6-9.6-16-13.6-5.2-10.4-5.6-723.6 0-738l4-10.4h736l1.6 9.2c1.2 4.8 2.8 172 3.6 372 2 333.2 1.6 363.6-4.4 370.4-6.8 8-342.4 202.8-361.2 210-9.6 3.2-17.2 0.4-64.8-26.8-29.6-16.8-55.2-30.8-56.4-30.8s-2.4 12.8-2.4 28.4c0 46.8 8.4 43.6-113.2 43.6-76.4 0-106.4-1.2-110-4.8zM356 866.8v-29.2l-71.2-40.8c-39.2-22.4-72.4-40.8-74-40.8s-2.8 31.6-2.8 70v70h148v-29.2zM673.2 787.2c88.4-50.8 163.2-94.4 166-97.2 3.6-3.2 4.8-19.6 4-63.2l-1.2-58.8-330 191.2-330-191.2-1.2 56.8c-0.4 31.2-0.4 58.8 0.8 61.2 0.8 2.4 46.4 30 101.2 61.6 54.4 31.2 128 73.6 163.2 94.4 35.2 20.4 64.4 37.6 65.2 37.6 0.4 0.4 73.2-41.2 162-92.4zM681.2 618l162.4-92 0.4-97.2v-97.2l-94 2.4-4 92h-468l-4-92-94-2.4v95.2l0.4 95.2 162.8 94.8c89.6 52 165.6 94.4 168.8 94 3.6-0.4 79.6-42 169.2-92.8zM708 360v-28h-392v56h392v-28zM844 146v-146h-96v43.2c0 28.4-1.6 44.8-4.8 48-6.8 6.8-455.6 6.8-462.4 0-3.2-3.2-4.8-19.6-4.8-48v-43.2h-96v292h664v-146zM708 28v-28h-392v56h392v-28zM276 498v-54h40v108h-40v-54zM337.6 476.8c-8-5.6-10-18-3.6-27.2 6-9.2 8.4-9.6 50-9.6s44 0.4 50 9.6c6.4 9.2 4.4 21.6-3.6 27.2-2.4 1.6-23.2 3.2-46.4 3.2s-44-1.6-46.4-3.2zM276 166v-54h40v108h-40v-54zM333.6 142c-6-9.2-6-10.8 0-20 6.4-9.6 8-10 50.4-10s44 0.4 50.4 10c6 9.2 6 10.8 0 20-6.4 9.6-8 10-50.4 10s-44-0.4-50.4-10z" />
<glyph unicode="&#xe930;" glyph-name="folder-open" d="M832 0l192 512h-832l-192-512zM128 576l-128-576v832h288l128-128h416v-128z" />
<glyph unicode="&#xe931;" glyph-name="Selections" d="M81.408 900.096c-27.136-16.384-30.208-29.184-30.208-119.296 0-126.464 1.536-128 133.632-128h87.552l34.816 34.816v87.552c0 132.608-1.024 133.632-129.024 133.632-68.096 0-86.016-2.048-96.768-8.704zM260.096 782.848c1.024-57.344 0-73.728-6.144-78.336-4.608-4.096-29.184-5.632-77.824-4.608l-71.168 1.536-3.072 156.672 156.672-3.072 1.536-72.192zM219.648 830.976c-5.632-6.656-21.504-25.088-34.304-41.472l-23.040-29.696-16.896 16.384c-17.408 16.896-33.792 18.432-36.864 2.56-2.048-10.752 42.496-59.392 55.296-59.392 9.728 0 87.040 95.232 87.040 107.52 0 5.12-3.584 10.752-8.192 12.288-11.264 4.096-10.752 4.608-23.040-8.192zM746.496 900.608c-26.112-13.824-29.696-28.672-29.696-125.44v-87.552l34.816-34.816h87.552c132.096 0 133.632 1.536 133.632 128 0 124.928-3.072 128-129.024 128-64-0.512-86.528-2.048-97.28-8.192zM920.576 779.776l-1.536-78.336-71.168-1.536c-47.616-1.024-73.216 0.512-77.824 4.608-5.632 4.608-7.168 22.528-7.168 76.288 0 38.4 1.536 71.68 3.584 73.216 1.536 2.048 37.376 3.584 79.36 3.584h76.288l-1.536-77.824zM80.896 567.808c-26.112-13.824-29.696-29.184-29.696-119.808 0-125.952 2.048-128 128-128 127.488 0 128 0.512 128 128 0 98.304-2.048 105.472-30.72 120.32-20.992 10.752-175.616 10.752-195.584-0.512zM258.56 448v-74.24l-156.16-3.072v154.624l156.16-3.072v-74.24zM749.568 570.88c-6.144-2.048-15.872-10.752-22.016-18.432-10.24-12.8-10.752-19.456-10.752-103.936 0-128 0.512-128.512 128-128.512 125.952 0 128 2.048 128 128s-2.048 128-129.024 127.488c-46.080 0-88.576-2.048-94.208-4.608zM921.6 448v-77.312l-156.16 3.072-1.536 68.608c-0.512 37.888 0 72.192 1.024 75.776 2.048 5.12 21.504 6.656 79.872 6.656h76.8v-76.8zM860.672 471.040c-17.408-20.992-33.792-38.4-35.84-38.4s-9.216 5.632-15.872 12.8c-14.336 15.36-32.768 15.36-34.816 0-1.536-12.8 46.080-61.44 56.32-57.344 4.096 1.536 25.6 25.088 47.616 52.224 32.768 40.448 39.424 51.2 34.816 57.856-10.24 16.896-20.48 11.264-52.224-27.136zM488.96 553.472c-10.24-15.36-5.632-26.624 22.016-55.296l18.432-19.456h-65.024c-58.368 0-66.048-1.024-75.264-10.24-5.632-5.632-10.24-14.848-10.24-20.48s4.608-14.848 10.24-20.48c9.216-9.216 16.896-10.24 75.264-10.24h65.024l-18.432-18.944c-27.648-29.184-32.256-40.448-22.016-55.808 15.36-24.064 30.72-17.408 91.136 40.448 34.304 33.28 54.784 56.32 54.784 62.976s-20.992 31.232-54.784 65.024c-60.416 59.904-75.264 66.56-91.136 42.496zM80.896 235.008c-26.112-13.824-29.696-29.184-29.696-119.808 0-124.928 3.072-128 128-128 126.464 0 128 1.536 128 133.632v87.552l-34.816 34.816h-88.576c-68.608-0.512-92.16-2.048-102.912-8.192zM255.488 189.952c4.096-4.608 5.632-30.208 4.608-77.824l-1.536-71.168-156.16-3.072v76.288c0 41.984 1.536 77.824 3.584 79.36 1.536 2.048 34.816 3.584 73.216 3.584 53.76 0 71.68-1.536 76.288-7.168zM199.68 142.848c-15.36-18.944-29.696-36.864-31.744-39.936-2.56-3.584-9.216 0-18.432 9.216-16.896 15.872-38.4 16.896-40.96 1.536-2.048-9.728 44.032-59.904 54.272-59.904 3.584 0 24.576 22.528 47.104 49.664 42.496 51.2 49.152 69.12 28.16 72.192-7.68 1.024-18.432-8.192-38.4-32.768zM734.208 225.792l-17.408-17.408v-87.552c0-132.096 1.536-133.632 128-133.632 124.928 0 128 3.072 128 128 0 126.464-1.536 128-133.632 128h-87.552l-17.408-17.408zM920.576 116.224l1.536-78.336-156.672 3.072-1.536 71.168c-1.024 48.64 0.512 73.216 4.608 77.824 4.608 6.144 20.992 7.168 78.336 6.144l72.192-1.536 1.536-78.336z" />
<glyph unicode="&#xe932;" glyph-name="Settings" d="M490 935.8c-24-4.6-41.2-16.6-50-34.4-5.4-11-6.6-17.2-11-55.2-2.6-23.4-5.2-42.8-5.4-43-0.4 0-10.8-3.6-23.2-7.8l-22.6-7.6-32.4 27c-17.8 15-37.4 29.8-43.8 33.2-13.2 7-32.6 10.2-48.2 7.8-20.8-3.4-32-11.2-65.4-45.2-34.4-35-39.4-42.6-42.6-65.6-1.8-12.2-1.6-16.6 1.4-27.8 4.6-16.4 12.4-28.4 42-64.2 13.2-16 22.8-29.2 22.4-31-1-3.4-17.2-42.6-18-43.4-0.2-0.4-20.6-2.4-45.4-4.6-24.6-2.2-49.4-5-55.2-6.2-25.8-5.2-52-24.8-63-47.4l-6.6-13.4v-92l6.6-13.4c10.8-22 34-40.2 59.6-46.4 6.4-1.6 27.2-4.4 45.8-6.2 18.8-1.6 38.2-3.6 43.4-4.2l9.4-1.2 11-22.8 11-23-27.2-34.4c-15-19-29.6-39.4-32.2-45.4-10-21.4-7.8-52 5-72.8 2.8-4.4 18.4-21.6 34.8-37.8 24.4-24.2 32-30.6 42.8-35.6 25.8-12.2 56.2-9.4 79.2 7.2 5.2 3.6 22.2 17.2 37.8 30s29.6 22.8 30.8 22.2c1.2-0.6 11.2-4.8 22.2-9.4s20.2-8.6 20.6-8.8c0.4-0.4 2.8-21.2 5.4-46.4 5-48.8 8.2-61.4 18.8-76 7.6-10.4 21-21.4 33.4-27 9.4-4.4 12-4.6 59.8-4.6h50l13 6.2c20.8 10 37 28.8 43 49.8 2.4 8.2 11 81.4 11 93.2 0 2.2 4 5 11.6 8 6.2 2.4 16.6 7 23 10l11.8 5.4 31.2-25.4c39.8-32.2 41-33 56-38 22-7.4 47-4.4 66.6 8 5 3.2 22.2 19.2 38.2 35.4 34.6 35.4 39.8 44.2 41.2 69.4 1.6 29.6-2.4 37.4-44 88.4l-23.2 28.4 7.8 18c4.2 9.8 8.2 20.2 9 23 0.6 2.8 1.8 5.2 2.6 5.2s17.6 2.2 37.4 5c40.8 5.6 49.8 9.2 60.2 22.6 11.8 15.6 13.2 23.6 14 82.4 0.8 42.4 0.2 56-2.2 67.8-5.4 25.8-18.4 41.4-38.8 46-7 1.6-74 10.2-79.6 10.2-0.4 0-2.2 5.2-3.8 11.6-1.8 6.2-5 16.6-7.2 23l-4 11.4 29.2 34.4c16 19 31.4 39.2 34.6 45.4 4.8 10 5.4 13.4 5.4 32.2 0 19.6-0.4 22-6.4 34.6-5.4 11.4-11.4 18.6-36.2 43.4-25 25.2-31.6 30.8-43.4 36.4-12.8 6-15.6 6.6-33 6.6-28.4 0-33.2-2.6-97.2-55.4l-14.4-11.8-16.6 7.2c-9.2 4-19.6 8.4-23 9.8l-6.2 2.8-4.4 37.4c-5.2 44.2-8 53.4-19.2 66.4-17.4 19.8-36.2 24.6-95 24.4-22.6-0.2-45-1-50-2zM589.6 892c3.6-2.2 7.2-6 8.2-8.6 1-2.4 3.6-23.8 6-47.4s5-46.4 5.6-50.6c2-13 8.4-18.4 30.2-25.6 10.6-3.4 28.8-10.8 40.2-16 31.2-14.6 33-14.2 67 14 55.2 45.8 58.6 48.2 69 48.2 12 0 17.8-4.2 45.6-32.2 22-22.4 27.6-31.8 25.4-42.8-1.2-6.6-5.4-12.2-51.6-68.8-25.4-31.2-25.6-32.8-11.6-61.4 5.6-11 12.8-28.2 16.2-38 8.2-23.6 10-26.6 17-30.2 3.6-1.8 24.8-5.4 51.8-8.6 32-3.8 46.8-6.4 48.8-8.6 4.4-4.4 4.4-104.6 0-109-2.2-2-17.6-4.6-52.2-8.4-32.8-3.6-50.6-6.4-53.8-8.6-3.4-2.2-6.6-9.2-12.2-26.8-4.2-13-11.6-31.8-16.4-41.8-11.2-23.2-11.6-31-2-43.4 3.8-5 19.4-24.4 34.8-43.2 15.4-18.6 29-37.2 30.4-41.2 4-12.2 0-19.4-25.8-45.6-26.6-27.4-33.2-32-44.6-31.8-9.8 0.2-8.6-0.6-56.6 38.4-19.8 16.2-38 30.4-40.4 31.8-8.2 4.2-17.6 2.4-38.2-7.6-11-5.6-28.6-12.8-38.8-16.2-31.6-10.4-30.2-8-36.6-74-6.2-65.8-6-65.2-12.6-75-9.6-14-14.4-15.2-53.4-14.6-39.2 0.6-42 1.6-50 17.8-4.2 8.2-5.6 16.6-10 61.2-2.6 28.4-5.4 54.4-6 58-2 11-11.8 19.2-32.4 26.2-10 3.4-27.4 10.8-38.8 16.4-21.4 10.4-28.4 11.8-37.4 7.2-3-1.6-22-16.4-42.4-33.2-20.4-16.6-40.8-32.2-45.4-34.2-14.4-6.6-19.6-4-49.8 26.6-14.6 14.6-27.4 28.6-28.6 31-3.4 6.6-2.6 16.8 1.6 24 2.2 3.4 16.2 21.4 31.2 39.6 15.2 18.4 29.6 36.6 32.2 40.6 7.6 11 6.4 20.4-5 44-5.6 11-12.8 28.6-16.2 39-5.6 17.2-9.8 23.8-17.6 28.2-1.4 0.8-30.8 4-65.6 7.2-68.2 6.2-76.8 8.2-89.2 21l-5.6 5.6v36.4c0 36 0 36.4 5 41.8 2.8 3 10 7.6 16 10.4 9.4 4.4 18.6 5.8 69.6 10.8 34.4 3.2 61.6 6.8 65.8 8.6 9 3.8 14.2 11.2 20.8 29.6 2.8 8.2 10 24.8 16 37 11.6 23.8 13.2 32.2 7.2 41.2-1.8 3-17.6 23-35.2 44.6-27.8 34.4-31.8 40.2-32.6 47.8-0.8 5.6 0 10.6 2 14.4 1.8 3.2 14.8 17.4 29 31.4 27.2 27.2 32.8 30.4 45.8 27 3.6-1 23.8-16 47-34.8 22.4-18.2 42.6-34 45.2-35 8.6-3.4 15.8-1.8 36.6 8 11.4 5.4 29.4 12.8 39.8 16.4 20.8 7 26.8 11.2 29.8 20.6 1.2 3.4 4.4 27.8 7.2 54s6.2 49.6 7.2 51.6c4.4 8 12.6 9.4 55.8 9.6 37.6 0 41.6-0.4 47.6-4zM517 642.8c-33.4-5.4-64.2-18.8-89.4-39-91.2-72.4-91.2-213.2 0-285.6 21.4-17.2 42-27.2 72.4-35.6 19.6-5.2 65.4-4.8 87 1.2 65.2 17.6 113.8 66.4 132.4 133 2.6 9.2 3.4 20.2 3.4 44.2s-0.8 35-3.4 44.2c-18.6 66.6-68 116.2-132.4 133-15.8 4-56.4 6.6-70 4.6zM576 587.8c38.2-10.6 68.2-36.2 85-72.8 8.8-18.8 11.6-32.6 11.6-54s-2.8-35.2-11.6-54c-22-48-66.8-77-118.4-77-24.6 0-36 2.6-58.6 13.4-44.8 21.6-74 67.8-74 117.6 0 35.4 13 66.2 39 92.2 12.6 12.8 19.6 18 33.4 24.8 9.4 4.6 22 9.6 28 11 17.2 4.2 48.2 3.6 65.6-1.2z" />
<glyph unicode="&#xe933;" glyph-name="Shower" d="M756.395 953.173c-10.468-3.186-25.941-10.923-34.588-17.294-10.012-8.192-16.839-10.468-21.39-7.282-9.557 5.916-50.517 4.551-63.26-2.731-6.372-3.186-16.839-5.006-23.666-3.641-14.564 2.731-25.031-11.833-17.749-24.576 6.372-12.288 106.041-108.772 115.143-111.957 11.833-4.096 23.666 7.282 20.48 19.57-1.365 5.916 0.455 16.384 4.096 23.211 7.282 14.564 8.647 50.972 1.82 63.26-6.827 12.743 17.749 28.217 48.242 30.948 18.66 1.365 27.762 0 42.78-8.647 35.044-19.57 36.409-25.486 36.409-139.719 0-85.106 0.91-101.49 7.282-107.406 8.192-8.647 9.102-8.647 20.48-2.731 8.192 4.551 8.647 10.923 8.647 108.316 0 101.945 0 104.22-11.378 126.976-24.576 48.697-79.189 70.542-133.348 53.703zM210.716 863.516c-16.839-18.66-87.836-133.348-87.836-141.995 0-5.006 14.108-40.505 31.858-79.644l31.858-70.997 12.288-102.4c10.923-91.932 12.288-123.335 14.564-305.38 2.731-191.147 3.186-203.89 11.378-212.992 16.839-18.204 49.607-16.384 65.081 3.641 4.096 5.461 5.461 53.248 5.916 188.416 0 177.493 0 180.679 9.102 180.679s9.102-3.186 9.102-180.224v-180.224l13.198-13.198c18.204-17.749 37.319-17.749 55.524 0l13.198 13.198v207.076c0 192.512-0.91 212.537-11.378 297.188-13.653 108.772-13.198 103.31-3.186 100.124 4.096-1.365 25.941-2.731 48.242-3.641 39.14-0.91 40.96-0.455 50.972 11.833 5.916 6.827 10.923 16.839 10.923 22.3-0.455 5.461-18.66 43.691-40.505 85.106-45.056 83.285-55.068 93.298-80.555 81.465-7.282-3.641-15.929-12.288-19.57-19.57-6.372-14.108-6.827-13.198 39.595-103.31 0.455-1.365-20.025-2.276-45.511-2.276-25.941 0-58.254-1.365-72.363-3.186-25.031-3.641-25.031-3.641-23.666-18.204 1.365-8.647-8.192 7.737-23.666 41.87-13.653 30.948-25.031 57.799-25.031 60.075 0 1.82 15.474 27.307 34.133 55.979 36.864 56.434 41.415 72.818 25.031 89.202-12.743 12.743-36.864 11.833-48.697-0.91zM262.599 754.29l-26.852-41.415 3.186-26.396 3.186-26.852h19.115c26.396 0 48.242 13.198 60.53 36.409 12.288 22.756 13.198 39.595 4.096 61.44-6.372 14.564-27.307 38.684-34.133 38.684-1.365 0-14.564-18.66-29.127-41.87z" />
<glyph unicode="&#xe934;" glyph-name="Structural" d="M254 792.8l-252-167.2-1.2-70.8-0.8-71.2 40.8 27.6c155.6 104.4 468 308.8 471.2 308.8s315.6-204.4 471.2-308.8l40.8-27.6-0.8 71.2-1.2 70.8-252 167.2c-138.4 91.6-254.8 166.8-258 166.8s-119.2-75.2-258-166.8zM76 448v-40h84v80h-84v-40zM864 448v-40h84v80h-84v-40zM76 290v-42h84v84h-84v-42zM864 290v-42h84v84h-84v-42zM76 134v-42h84v84h-84v-42zM864 134v-42h84v84h-84v-42zM76-24v-40h84v80h-84v-40zM236-24v-40h80v80h-80v-40zM392-24v-40h84v80h-84v-40zM548-24v-40h84v80h-84v-40zM708-24v-40h80v80h-80v-40zM864-24v-40h84v80h-84v-40z" />
<glyph unicode="&#xe935;" glyph-name="price-tag" d="M976 960h-384c-26.4 0-63.274-15.274-81.942-33.942l-476.116-476.116c-18.668-18.668-18.668-49.214 0-67.882l412.118-412.118c18.668-18.668 49.214-18.668 67.882 0l476.118 476.118c18.666 18.666 33.94 55.54 33.94 81.94v384c0 26.4-21.6 48-48 48zM736 576c-53.020 0-96 42.98-96 96s42.98 96 96 96 96-42.98 96-96-42.98-96-96-96z" />
<glyph unicode="&#xe936;" glyph-name="Tiers" d="M626 923.6c-6.6-3.4-10.2-7-13.4-13.6-4.4-8.6-4.6-10.4-4.6-75.4v-66.6h-325.2l-8.8-4.4c-6.6-3.4-10.2-7-13.4-13.6-4.4-8.6-4.6-10.4-4.6-75.4v-66.6h-98.6c-98.2 0-98.6 0-107.4-4.4-9.6-5-18-17.8-18-27.6s8.4-22.6 18-27.4l8.8-4.6h234.4l8.8 4.6c6.6 3.2 10.2 6.8 13.6 13.4 4.2 8.6 4.4 10.4 4.4 75.4v66.6h325.2l8.8 4.6c6.6 3.2 10.2 6.8 13.6 13.4 4.2 8.6 4.4 10.4 4.4 75.4v66.6h293.2l8.8 4.6c9.6 4.8 18 17.6 18 27.4s-8.4 22.6-18 27.6l-8.8 4.4h-330.4l-8.8-4.4zM722 827.6c-6.6-3.4-10.2-7-13.4-13.6l-4.6-8.8v-810.4l4.6-8.8c3.2-6.6 6.8-10.2 13.4-13.4l8.8-4.6h266.4l8.8 4.4c6.6 3.4 10.2 7 13.6 13.6l4.4 8.8v810.4l-4.4 8.8c-3.4 6.6-7 10.2-13.6 13.6l-8.8 4.4h-266.4l-8.8-4.4zM960 720v-48h-192v96h192v-48zM960 560v-48h-192v96h192v-48zM960 400v-48h-192v96h192v-48zM960 240v-48h-192v96h192v-48zM960 80v-48h-192v96h192v-48zM370 667.6c-6.6-3.4-10.2-7-13.4-13.6l-4.6-8.8v-650.4l4.6-8.8c3.2-6.6 6.8-10.2 13.4-13.4l8.8-4.6h266.4l8.8 4.6c6.6 3.2 10.2 6.8 13.6 13.4l4.4 8.8v650.4l-4.4 8.8c-3.4 6.6-7 10.2-13.6 13.6l-8.8 4.4h-266.4l-8.8-4.4zM608 560v-48h-192v96h192v-48zM608 400v-48h-192v96h192v-48zM608 240v-48h-192v96h192v-48zM608 80v-48h-192v96h192v-48zM18 507.6c-6.6-3.4-10.2-7-13.4-13.6l-4.6-8.8v-490.4l4.6-8.8c3.2-6.6 6.8-10.2 13.4-13.6l8.8-4.4h266.4l8.8 4.4c6.6 3.4 10.2 7 13.6 13.6l4.4 8.8v490.4l-4.4 8.8c-3.4 6.6-7 10.2-13.6 13.6l-8.8 4.4h-266.4l-8.8-4.4zM256 400v-48h-192v96h192v-48zM256 240v-48h-192v96h192v-48zM256 80v-48h-192v96h192v-48z" />
<glyph unicode="&#xe937;" glyph-name="Tile" d="M11.4 948.6c-0.8-0.6-1.4-63.6-1.4-140v-138.6h280v280h-138.6c-76.4 0-139.4-0.6-140-1.4zM374 810v-140h278v280h-278v-140zM734 810v-140h280l-0.4 139.6-0.6 139.4-279 1v-140zM10 447v-139h280v278h-280v-139zM374 447v-139h278v278h-278v-139zM734 447v-139h280v278h-280v-139zM10.4 86.6l0.6-139.6 279-1v280h-280l0.4-139.4zM374 86v-140h278v280h-278v-140zM734 86v-140l279 1 0.6 139.6 0.4 139.4h-280v-140z" />
<glyph unicode="&#xe938;" glyph-name="Tools" d="M188 926.8c-10.6-2.2-34.8-9.4-42.8-12.8-11.2-4.8-15.2-9-15.2-16.4 0-5.6 7.6-14 63.8-70.4 69.2-69.8 69.4-70 67.8-90.4-1.2-14.8-9.2-26-23.4-33.2-11.8-6-20.4-6.8-33.2-3.4-6.6 1.8-18.6 12.6-72.2 66-56.8 56.4-64.8 63.8-70.4 63.8-8.4 0-13-5.4-19.2-22.2-9-24.2-11.8-43.2-10.6-73.4 1.4-39.6 9.6-66 30.4-97.6 24.6-37 64-65 109-77 22.2-6 67.2-6.6 89-1.2l13.8 3.6 54.2-54.2c29.6-29.6 55-54 56-54 2.6 0 121 118.4 121 121 0 1-24.4 26.4-54.2 56.2l-54.4 54.4 3.8 14.6c4.6 19 4.8 60.6 0.4 81-15.4 68.6-67 122.8-135.2 142-11.2 3-67.4 5.6-78.4 3.6zM538 922.8c-23.8-3-50-12.2-50-17.8 0-4 1-4.4 31.2-11.2 29.4-6.6 61.4-17 77.6-25.2 31-15.8 59.2-41.8 70.8-65 11.8-24 12-45.4 0.6-69.6-7-14.8-6.4-21.2 2.6-34.6l4.8-6.8-139.8-139.8c-77-77-139.8-140.4-139.8-141s15.2-16.4 34-35l33.8-34 281 281 5.2-4.6c14.6-13.4 29.8-19 41.2-15.2 12.8 4.2 28-3.8 66-34.6l22.4-18.4-6.6-7.2c-3.6-4-7.6-10.6-9-14.6-6.4-19.8 9.2-41.2 30.4-41.2 12.6 0 22.2 7.4 62 47.4 33 33.4 39.6 41 41.4 48.2 9.2 34-32 55-56.6 28.6-3.4-3.4-6.6-6.2-7.4-6.2s-6.2 7.4-12 16.4c-9.8 15.2-10.6 17.4-12 32.8-1.2 14.8-2.6 19-12.6 38.2-17.8 34-44 67.4-75.4 96-79.8 72.8-148.4 113.8-215.6 128.8-17 3.6-54.6 6.2-68.2 4.6zM565.4 394.4c-32.6-32.6-59.4-60.4-59.4-61.4s27.2-29.2 60.2-62.2l60.4-60.4-3.8-14.6c-4.6-19-4.8-60.6-0.4-81 13.6-60.2 55.8-110.6 111.6-133.4 26.8-10.8 35.4-12.4 72-12.4 34.6 0 49 2.6 72.8 13.2 11.8 5.2 15.2 8.8 15.2 16.2 0 5.6-7.6 14-63.8 70.4-69.4 70-69.6 70.2-67.6 90.4 1.6 15 9.4 26.2 23.2 33.4 11.8 5.8 20.4 6.6 33.2 3.2 6.6-1.8 18.6-12.6 72.2-66 56.8-56.4 64.8-63.8 70.4-63.8 8.4 0 13 5.4 19.2 22.2 9 24.2 11.8 43.2 10.6 73.4-1.2 38.6-9.2 65-28.4 94.8-25.2 38.8-65 67.4-111 79.8-22.4 6.2-67.4 6.6-88.8 1l-13.8-3.6-60.2 60.2c-33.2 33-61.2 60.2-62.2 60.2-1.2 0-28.8-26.8-61.6-59.6zM352.6 388c-8-4.8-318-282.4-323.4-289.6-5.4-7-5.4-21.8 0.2-29.6 2.4-3.2 24.4-25.8 49-50.2 37.6-37.2 45.8-44.4 52-45.6 16.2-3 11.4-7.8 164 162.4 78.4 87.4 144.2 161.4 146 164.4 4 5.8 4.6 19 1.6 27.6-2.8 7.4-53.2 58.2-61.4 61.8-9 4-20.4 3.4-28-1.2z" />
</font>
</defs>
</svg>
